<?xml version="1.0" encoding="utf-8"?>
<!-- Generator: Adobe Illustrator 22.0.0, SVG Export Plug-In . SVG Version: 6.00 Build 0)  -->
<svg version="1.1" id="OBJECTS" xmlns="http://www.w3.org/2000/svg" xmlns:xlink="http://www.w3.org/1999/xlink" x="0px" y="0px"
	 viewBox="0 0 263.3 249.4" style="enable-background:new 0 0 263.3 249.4;" xml:space="preserve">
<style type="text/css">
	.st0{fill:none;stroke:#007DEA;stroke-width:0.75;stroke-linejoin:round;}
	.st1{fill:#FFFFFF;stroke:#007DEA;stroke-width:0.75;stroke-linecap:round;stroke-linejoin:round;}
	.st2{fill:none;stroke:#007DEA;stroke-width:0.75;stroke-linecap:round;stroke-linejoin:round;}
	.st3{fill:#DBEDFF;stroke:#007DEA;stroke-width:0.75;stroke-linecap:round;stroke-linejoin:round;}
	.st4{fill:#FFFFFF;}
	.st5{fill:#DBEDFF;}
	.st6{fill:#007DEA;stroke:#007DEA;stroke-width:0.75;stroke-linecap:round;stroke-linejoin:round;}
	.st7{fill:#007DEA;}
	.st8{fill:none;stroke:#EA698C;stroke-width:0.75;stroke-linecap:round;stroke-linejoin:round;}
	.st9{fill:#9EE493;stroke:#007DEA;stroke-width:0.75;stroke-linecap:round;stroke-linejoin:round;}
	.st10{fill:#F865AF;stroke:#007DEA;stroke-width:0.75;stroke-linecap:round;stroke-linejoin:round;}
	.st11{fill:none;stroke:#007DEA;stroke-width:0.5;stroke-linecap:round;stroke-linejoin:round;}
	.st12{fill:#FFFFFF;stroke:#007DEA;stroke-width:0.75;stroke-linejoin:round;}
</style>
<title>4</title>
<line class="st0" x1="443" y1="249.1" x2="0" y2="249.1"/>
<path class="st1" d="M37.9,194.3c-4.9-2.5-3.9-10.9-6.7-14.8s-2.5-9.4-1.2-13.5s1.3-6.9-0.9-10.7s-1.7-10-0.9-13.1s3.2-8,2.5-19.2
	s7.5-20.4,7.5-20.4s8.2,9.2,7.4,20.4s1.6,16.1,2.4,19.2s1.3,9.3-1,13.1s-2.3,6.7-1,10.7s1.6,9.6-1.3,13.5S42.8,191.9,37.9,194.3z"/>
<line class="st2" x1="37.9" y1="194.3" x2="38" y2="102.5"/>
<line class="st2" x1="37.9" y1="178.4" x2="32.6" y2="169.8"/>
<line class="st2" x1="37.9" y1="175.2" x2="43.9" y2="167.9"/>
<line class="st2" x1="38" y1="125.6" x2="42.9" y2="119.6"/>
<line class="st2" x1="38" y1="151.9" x2="45.8" y2="142.2"/>
<line class="st2" x1="37.9" y1="154.3" x2="31.3" y2="143.6"/>
<line class="st2" x1="38" y1="129.4" x2="33.9" y2="122.8"/>
<path class="st1" d="M32.9,194.8c-3.7-0.9-4.2-6.7-6.6-8.9s-3.1-5.9-2.8-8.8s-0.1-4.8-2.2-7s-2.6-6.5-2.5-8.6
	c0.6-4.4,0.2-8.9-1.2-13.2c-2.2-7.4,2-14.7,2-14.7s6.8,5,7.9,12.6c0.5,4.4,2,8.7,4.4,12.5c1,2,2.2,6,1.3,8.9s-0.5,4.8,0.9,7.3
	s2.5,6.2,1.1,9.2S35.9,192.4,32.9,194.8z"/>
<line class="st2" x1="32.9" y1="194.8" x2="19.6" y2="133.5"/>
<line class="st2" x1="30.6" y1="184.1" x2="25.8" y2="179.2"/>
<line class="st2" x1="30.2" y1="182" x2="33.1" y2="176.2"/>
<line class="st2" x1="23" y1="148.9" x2="25.4" y2="144.1"/>
<line class="st2" x1="26.8" y1="166.4" x2="30.6" y2="158.8"/>
<line class="st2" x1="27.1" y1="168" x2="21.1" y2="161.8"/>
<line class="st2" x1="23.5" y1="151.4" x2="19.8" y2="147.6"/>
<path class="st1" d="M42.1,194.6c3.2-0.8,3.6-5.8,5.7-7.7s2.7-5.1,2.4-7.6c-0.4-2.2,0.3-4.5,1.9-6.1c1.8-1.9,2.3-5.6,2.2-7.5
	c-0.5-3.8-0.2-7.7,1-11.4c1.9-6.4-1.7-12.7-1.7-12.7s-5.9,4.3-6.9,10.9c-0.5,3.8-1.8,7.5-3.8,10.8c-0.9,1.7-1.9,5.2-1.1,7.7
	c0.8,2.1,0.5,4.5-0.8,6.3c-1.3,2.2-2.1,5.4-1,8S39.5,192.6,42.1,194.6z"/>
<line class="st2" x1="42.1" y1="194.6" x2="53.6" y2="141.5"/>
<line class="st2" x1="44.1" y1="185.4" x2="48.2" y2="181.1"/>
<line class="st2" x1="44.5" y1="183.5" x2="41.9" y2="178.5"/>
<line class="st2" x1="50.7" y1="154.8" x2="48.6" y2="150.7"/>
<line class="st2" x1="47.4" y1="170.1" x2="44" y2="163.4"/>
<line class="st2" x1="47.1" y1="171.4" x2="52.3" y2="166.1"/>
<line class="st2" x1="50.2" y1="157" x2="53.4" y2="153.7"/>
<rect x="27.7" y="191.4" class="st1" width="20.5" height="57.6"/>
<rect x="72.8" y="186.4" class="st1" width="49" height="5.4"/>
<rect x="121.8" y="186.4" class="st1" width="27.4" height="5.4"/>
<polygon class="st1" points="71.4,249.1 66.7,249.1 76.7,191.8 81.4,191.8 "/>
<polygon class="st3" points="67.5,249.1 62.8,249.1 72.8,191.8 77.4,191.8 "/>
<polygon class="st3" points="124.7,249.1 129.4,249.1 119.4,191.8 114.7,191.8 "/>
<polygon class="st1" points="128.6,249.1 133.3,249.1 123.3,191.8 118.7,191.8 "/>
<polygon class="st1" points="96.1,249.1 91.4,249.1 101.4,191.8 106,191.8 "/>
<polygon class="st3" points="92.1,249.1 87.4,249.1 97.4,191.8 102.1,191.8 "/>
<polygon class="st3" points="149.4,249.1 154,249.1 144.1,191.8 139.4,191.8 "/>
<polygon class="st1" points="153.3,249.1 158,249.1 148,191.8 143.3,191.8 "/>
<polygon class="st1" points="69.1,108.5 80.7,164.6 80.7,186.4 76.2,186.4 76.2,164.6 64.6,108.5 "/>
<polygon class="st3" points="65.7,108.5 77.3,164.6 77.3,186.4 72.8,186.4 72.8,164.6 61.2,108.5 "/>
<polygon class="st3" points="93.8,108.5 105.4,164.6 105.4,186.4 100.9,186.4 100.9,164.6 89.3,108.5 "/>
<polygon class="st1" points="65.7,108.5 93.8,108.5 99.8,137.8 71.8,137.8 "/>
<polygon class="st1" points="150.4,185.8 164.2,236.5 154.6,238.6 134.2,193.3 "/>
<path class="st1" d="M117.9,159.4c0,0,29.5,19,30.4,19.8s3.8,9.5,3.8,9.5l-21.2,11.2l-3.1-8.2c0,0-28.4-4.8-30.7-5.2
	s-5.9-2.2-6.8-5.8s-2-17.2-2-17.2l0.9-2.2L117.9,159.4z"/>
<line class="st2" x1="128.9" y1="194.9" x2="150.4" y2="184"/>
<path class="st2" d="M102.9,160.7c0,0,1.8,9.2,2.1,9.6s30.8,15.6,31.6,15.9s2.5,3.6,2.5,3.6"/>
<g id="_Group_">
	<polygon class="st4" points="152.4,246 152.6,249.1 184.4,249.1 184.2,246 174.2,246 	"/>
	<path class="st5" d="M167.4,235.3c-1.9-1.4-2.2-2.6-3.1-2.6s-2,1.3-1.2,3c0.6,0,1.3,0.1,1.9,0.4c1.6,0.6,7.9,3.4,9.3,4
		s1.1,1.7,1.1,1.7c0.3-0.5,0.7-1,1.1-1.4c0,0,0-0.9-1.2-1.3C172.4,238,169.8,236.8,167.4,235.3z"/>
	<path class="st4" d="M174.2,240.1c-1.4-0.6-7.7-3.4-9.3-4c-0.6-0.3-1.2-0.4-1.9-0.4c-0.6,0-1.2,0.2-1.8,0.6c-1.4,0.8-3,1.2-4.6,1.3
		c-1.7,0-2.2-0.6-2.9,0.5c-1.2,2.5-1.7,5.3-1.3,8h21.8c0-1.5,0.3-2.9,1.1-4.2C175.3,241.7,175.6,240.7,174.2,240.1z"/>
	<path class="st4" d="M176.4,240.3c-0.4,0.4-0.8,0.9-1.1,1.4c-0.7,1.3-1.1,2.8-1.1,4.2h10C184.2,246,184.2,241.6,176.4,240.3
		L176.4,240.3z"/>
	<polygon class="st2" points="152.4,246 174.2,246 184.2,246 184.4,249.1 152.6,249.1 	"/>
	<path class="st2" d="M184.3,246c0,0,0-4.4-7.8-5.7l-0.1,0.1c-0.4,0.4-0.8,0.9-1.1,1.4c-0.7,1.3-1.1,2.8-1.1,4.2"/>
	<path class="st2" d="M175.3,241.7c0,0,0.3-1-1.1-1.7s-7.7-3.4-9.3-4c-0.6-0.3-1.2-0.4-1.9-0.4c-0.6,0-1.2,0.2-1.8,0.6
		c-1.4,0.8-3,1.2-4.6,1.3c-1.7,0-2.2-0.6-2.9,0.5c-1.2,2.5-1.7,5.3-1.3,8"/>
	<path class="st2" d="M176.4,240.3c0,0,0-0.9-1.2-1.3c-2.7-1-5.3-2.3-7.8-3.8c-1.9-1.4-2.2-2.6-3.1-2.6s-2,1.3-1.2,3"/>
</g>
<path class="st1" d="M172,240.6c-0.2,0.3-0.1,0.7,0.1,0.9l0,0c0.3,0.2,0.7,0.1,0.9-0.1l1.9-2.7c0.2-0.3,0.1-0.7-0.1-0.9l0,0
	c-0.3-0.2-0.7-0.1-0.9,0.1c0,0,0,0,0,0L172,240.6z"/>
<path class="st1" d="M169.4,239.6c-0.2,0.3-0.1,0.7,0.1,0.9l0,0c0.3,0.2,0.7,0.1,0.9-0.1l2.1-2.9c0.2-0.3,0.1-0.7-0.1-0.9
	c0,0,0,0,0,0l0,0c-0.3-0.2-0.7-0.1-0.9,0.1L169.4,239.6z"/>
<path class="st1" d="M166.9,238.7c-0.2,0.3-0.1,0.7,0.1,0.9l0,0c0.3,0.2,0.7,0.1,0.9-0.1c0,0,0,0,0,0l2.3-3.1
	c0.2-0.3,0.1-0.7-0.1-0.9c0,0,0,0,0,0l0,0c-0.3-0.2-0.7-0.1-0.9,0.1L166.9,238.7z"/>
<path class="st1" d="M164.3,237.8c-0.2,0.3-0.1,0.7,0.1,0.9l0,0c0.3,0.2,0.7,0.1,0.9-0.1l2.4-3.3c0.2-0.3,0.1-0.7-0.1-0.9l0,0
	c-0.3-0.2-0.7-0.1-0.9,0.1L164.3,237.8z"/>
<polygon class="st1" points="144.2,185.8 158,236.5 148.3,238.6 128,193.3 "/>
<path class="st1" d="M114.3,161.2c0,0,26.9,17.2,27.8,17.9s3.8,9.5,3.8,9.5l-21.2,11.2l-3.1-8.2c0,0-28.4-4.8-30.7-5.2
	s-5.9-2.2-6.8-5.8s-2-17.2-2-17.2l0.9-2.2H114.3z"/>
<line class="st2" x1="122.7" y1="194.9" x2="144.2" y2="184"/>
<path class="st2" d="M96.6,160.7c0,0,1.8,9.2,2.1,9.6s30.8,15.6,31.6,15.9s2.5,3.6,2.5,3.6"/>
<path class="st4" d="M106.7,126.8l6.6,9c0.4,0.5,31.2,12,31.2,12h17.9V146c0,0-4.8-5.2-5.8-5.2s-6.8,1.9-9.9,2.8l-23.2-17.3
	l-4.6-6.6L106.7,126.8z"/>
<path class="st5" d="M119,119.6l-12.2,7.2l6.6,9c0.1,0,0.1,0.1,0.2,0.1l9.9-9.8L119,119.6z"/>
<path class="st2" d="M106.7,126.8l6.6,9c0.4,0.5,31.2,12,31.2,12h17.9V146c0,0-4.8-5.2-5.8-5.2s-6.8,1.9-9.9,2.8l-23.2-17.3
	l-4.6-6.6L106.7,126.8z"/>
<path class="st4" d="M113.4,105.2l-15.1,0.5c-1.1,5.7-0.3,8.4,1.8,14.6c1.7,4.5,3.7,8.9,6.1,13.1l16.9-10
	C122.9,123.5,115.1,108.3,113.4,105.2z"/>
<path class="st2" d="M98.2,105.8c-1.1,5.7-0.3,8.4,1.8,14.6c1.7,4.5,3.7,8.9,6.1,13.1l16.9-10c0,0-7.7-14.6-9.7-18.4"/>
<path class="st1" d="M87,99.4c0,0-5.9,5.1-8.1,7.3s-4,5.3-2.7,11.8s6.1,25.5,6.3,28.6s-2.8,16.9-2.8,16.9s4.8,2.7,15.9,2.2
	c18.2-0.8,24.3-5.8,24.3-5.8c0.4-1,0.6-2,0.6-3.1c-0.2-1.5-3.7-9.6-4.3-14.8s-1.2-28.7-1.5-31.6s-0.9-5.6-2.2-6.9s-8.8-5.1-8.8-5.1
	L87,99.4z"/>
<path class="st3" d="M116.3,73.6c0.5,1.3-0.8,3.6-4.3,3.6h-5.4v-5.4C106.5,71.9,112.7,70.4,116.3,73.6z"/>
<path class="st4" d="M89.4,86.1c0.3,2.7,0.4,5.3,0.3,8c-0.3,2-1.2,3.9-2.7,5.3c0,0,4,6.5,13,4.8c3.9-0.7,4.3-4.3,3.8-5.1
	s-4.1-3.5-4.1-13L89.4,86.1z"/>
<path class="st5" d="M89.7,92.4c0-2.9-0.4-6.3-0.4-6.3h10.4c0,9.6,3.5,12.2,4.1,13c0.3,0.8,0.3,1.7-0.1,2.4
	C97,100.5,91.9,95.1,89.7,92.4z"/>
<path class="st2" d="M89.4,86.1c0.3,2.7,0.4,5.3,0.3,8c-0.3,2-1.2,3.9-2.7,5.3c0,0,4,6.5,13,4.8c3.9-0.7,4.3-4.3,3.8-5.1
	s-4.1-3.5-4.1-13L89.4,86.1z"/>
<path class="st1" d="M105.1,65.8c4.6,3.6,5.2,8.2,4.8,13c-0.3,2.5-0.4,5-0.4,7.4c0,2.5-2.8,8.6-5.9,8.8c-3.5,0.3-11.1-2.1-14-7.7
	c-3.7-1.6-6.6-4.9-6.2-12.9C83.8,64.9,96.3,58.9,105.1,65.8z"/>
<path class="st6" d="M109,69.8c0,0-3.1,7.4-17.1,9L90,83.1c-0.5-0.4-0.9-0.9-1.2-1.4l-1.3-2l0.1,6.2l1.7,1.5l0.4,5
	c0,0-3.1-3.4-4.6-5.5c-2.1-3.2-3.3-6.9-3.4-10.7c-0.2-6.1,3.7-11.5,9.4-13.4C98.6,60.4,105,63.1,109,69.8z"/>
<path class="st4" d="M88.4,81.5c0.1-0.4,0-0.7-0.2-1c-0.7-1-1.8-1.7-3-1.8c-2.4-0.1-1.8,3.8-0.5,5.9c1.1,1.6,2.9,2.7,4.9,2.8
	C89.4,85.4,89,83.4,88.4,81.5z"/>
<path class="st2" d="M88.9,81.6c0,0-1.3-2.8-3.7-2.9s-1.8,3.8-0.5,5.9c1.1,1.6,2.9,2.7,4.9,2.8"/>
<path class="st7" d="M98.5,80.8c0.1,0.6,0.6,1,1.2,0.9c0.6-0.1,1-0.6,0.9-1.2c-0.1-0.5-0.5-0.9-1-0.9C99,79.6,98.5,80.1,98.5,80.8z"
	/>
<path class="st7" d="M107.2,81.6c-0.1,0.6,0.3,1.2,0.8,1.2s0.9-0.4,0.9-1.1s-0.3-1.2-0.8-1.2S107.3,80.9,107.2,81.6z"/>
<path class="st2" d="M105.2,86.8c0,0,0.8-0.3,0.5-1.6"/>
<path class="st8" d="M105.1,90.1c-1.5,0.3-3-0.1-4.2-0.9"/>
<path class="st2" d="M101.6,77.7c0,0-1.1-0.7-3.7-0.3"/>
<path class="st2" d="M107.6,77.9c0.5-0.2,1.1-0.3,1.6-0.2"/>
<path class="st9" d="M98.2,61.4c-7.3,0-12.4,1-15.1,6.6c-1.8,3.8-1.2,9.5-1.2,9.5h9.7L98.2,61.4z"/>
<path class="st1" d="M91.6,77.5v-8.4c0-2.2,1.1-7.8,6.9-7.8s9.4,2.6,10.4,8.4L91.6,77.5z"/>
<path class="st1" d="M91.6,77.5h5.3c3,0,6-0.9,8.5-2.5c2.8-1.9,7.9-3.1,10.8-1.3c-1.1-2.5-7.3-4-7.3-4
	C101.9,69.6,95.3,70.9,91.6,77.5z"/>
<path class="st4" d="M84.7,132.4c0,0,6.2,8.4,6.6,8.9s37.4,6.5,37.4,6.5h17.9V146c0,0-4.8-5.2-5.8-5.2c-3.1,0.1-6.2,0.6-9.2,1.4
	l-30-10.3l-4.6-6.6L84.7,132.4z"/>
<path class="st5" d="M96.9,125.2l-12.2,7.2c0,0,6.2,8.4,6.6,8.9c0.1,0,0.1,0.1,0.2,0.1l9.9-9.8L96.9,125.2z"/>
<path class="st2" d="M84.7,132.4c0,0,6.2,8.4,6.6,8.9s37.4,6.5,37.4,6.5h17.9V146c0,0-4.8-5.2-5.8-5.2c-3.1,0.1-6.2,0.6-9.2,1.4
	l-30-10.3l-4.6-6.6L84.7,132.4z"/>
<path class="st4" d="M92.5,114.7l-16.3-3.4c-1.1,5.7-0.3,8.4,1.8,14.6c1.6,4.5,3.6,8.9,6,13.1l16.9-10
	C100.8,129,94.2,117.7,92.5,114.7z"/>
<path class="st2" d="M76.1,111.3c-1.1,5.7-0.3,8.4,1.8,14.6c1.6,4.5,3.6,8.9,6,13.1l16.9-10c0,0-6.7-11.3-8.4-14.4"/>
<g id="_Group_2">
	<polygon class="st4" points="146.2,246 146.4,249.1 178.2,249.1 178,246 168,246 	"/>
	<path class="st5" d="M161.1,235.3c-1.9-1.4-2.2-2.6-3.1-2.6s-2,1.3-1.2,3c0.6,0,1.3,0.1,1.9,0.4c1.6,0.6,7.9,3.4,9.3,4
		s1.1,1.7,1.1,1.7c0.3-0.5,0.7-1,1.1-1.4c0,0,0-0.9-1.2-1.3C166.2,238,163.6,236.8,161.1,235.3z"/>
	<path class="st4" d="M167.9,240.1c-1.4-0.6-7.7-3.4-9.3-4c-0.6-0.3-1.2-0.4-1.9-0.4c-0.6,0-1.2,0.2-1.8,0.6c-1.4,0.8-3,1.2-4.6,1.3
		c-1.6,0-2.2-0.6-2.9,0.5c-1.2,2.5-1.7,5.3-1.4,8H168c0-1.5,0.3-2.9,1.1-4.2C169,241.7,169.3,240.7,167.9,240.1z"/>
	<path class="st4" d="M170.1,240.3c-0.4,0.4-0.8,0.9-1.1,1.4c-0.7,1.3-1.1,2.8-1.1,4.2h10C178,246,178,241.6,170.1,240.3
		L170.1,240.3z"/>
	<polygon class="st2" points="146.2,246 168,246 178,246 178.2,249.1 146.4,249.1 	"/>
	<path class="st2" d="M178,246c0,0,0-4.4-7.8-5.7l-0.1,0.1c-0.4,0.4-0.8,0.9-1.1,1.4c-0.7,1.3-1.1,2.8-1.1,4.2"/>
	<path class="st2" d="M169,241.7c0,0,0.3-1-1.1-1.7s-7.7-3.4-9.3-4c-0.6-0.3-1.2-0.4-1.9-0.4c-0.6,0-1.2,0.2-1.8,0.6
		c-1.4,0.8-3,1.2-4.6,1.3c-1.6,0-2.2-0.6-2.9,0.5c-1.2,2.5-1.7,5.3-1.4,8"/>
	<path class="st2" d="M170.1,240.3c0,0,0-0.9-1.2-1.3c-2.7-1-5.3-2.3-7.8-3.8c-1.9-1.4-2.2-2.6-3.1-2.6s-2,1.3-1.2,3"/>
</g>
<path class="st1" d="M165.7,240.6c-0.2,0.3-0.1,0.7,0.1,0.9c0,0,0,0,0,0l0,0c0.3,0.2,0.7,0.1,0.9-0.1l1.9-2.7
	c0.2-0.3,0.1-0.6-0.1-0.8l0,0c-0.3-0.2-0.7-0.1-0.9,0.1c0,0,0,0,0,0L165.7,240.6z"/>
<path class="st1" d="M163.2,239.6c-0.2,0.3-0.1,0.7,0.1,0.9c0,0,0,0,0,0l0,0c0.3,0.2,0.7,0.1,0.9-0.1c0,0,0,0,0,0l2.1-2.9
	c0.2-0.3,0.1-0.7-0.1-0.9c0,0,0,0,0,0l0,0c-0.3-0.2-0.7-0.1-0.9,0.1L163.2,239.6z"/>
<path class="st1" d="M160.6,238.7c-0.2,0.3-0.1,0.7,0.1,0.9l0,0c0.3,0.2,0.7,0.1,0.9-0.1c0,0,0,0,0,0l2.3-3.1
	c0.2-0.3,0.1-0.7-0.1-0.9l0,0c-0.3-0.2-0.7-0.1-0.9,0.1L160.6,238.7z"/>
<path class="st1" d="M158.1,237.8c-0.2,0.3-0.1,0.7,0.1,0.9l0,0c0.3,0.2,0.7,0.1,0.9-0.1l2.4-3.3c0.2-0.3,0.1-0.7-0.1-0.9l0,0
	c-0.3-0.2-0.7-0.1-0.9,0.1L158.1,237.8z"/>
<rect x="122.5" y="147.8" class="st1" width="123.4" height="4.6"/>
<rect x="181.5" y="152.4" class="st1" width="5.4" height="83.3"/>
<polygon class="st1" points="190,234.8 184.2,234.8 178.5,234.8 153.7,246 153.7,249.1 162.6,249.1 178.5,241.9 184.2,241.9 
	190,241.9 205.9,249.1 214.8,249.1 214.8,246 "/>
<polygon class="st3" points="134,145.1 157.1,145.1 155,147.8 132,147.8 "/>
<polygon class="st10" points="155,147.8 195.6,147.8 206.4,113.9 165.8,113.9 "/>
<path class="st4" d="M181.8,134.7l1.5-0.9c3.7-2,4.1-3.5,4.2-4c0.3-0.9-0.1-1.9-1-2.3c-0.2-0.1-0.5-0.1-0.7-0.1
	c-0.9,0-1.7,0.4-2.3,1.1c-0.3-0.7-1-1.1-1.7-1.1c-1.4,0.1-2.7,1-3.1,2.4c-0.1,0.6-0.6,2,2,4L181.8,134.7z"/>
<path class="st1" d="M220.2,125.5c-3.9,0-7.1,3.2-7.1,7.1h14.3C227.4,128.7,224.2,125.5,220.2,125.5L220.2,125.5z"/>
<polygon class="st1" points="226.6,133.2 213.8,133.2 215,147.8 225.5,147.8 "/>
<rect x="212.7" y="131.9" class="st1" width="15.1" height="2.8"/>
<polygon class="st3" points="226.2,144.3 226.8,137.6 213.7,137.6 214.3,144.3 "/>
<path class="st2" d="M218.4,127c1.2,0.4,2.5,0.4,3.7,0"/>
<path class="st1" d="M219.5,127.3c0.5,0.1,1.1,0,1.6-0.1v-1.4l-5.4-8.7l-1.6,0.4l5.4,8.7V127.3z"/>
<line class="st11" x1="20.1" y1="98.6" x2="22.1" y2="100.6"/>
<line class="st11" x1="22.1" y1="98.6" x2="20.1" y2="100.6"/>
<line class="st11" x1="240.2" y1="129.8" x2="242.2" y2="131.8"/>
<line class="st11" x1="242.2" y1="129.8" x2="240.2" y2="131.8"/>
<circle class="st11" cx="64.6" cy="82.2" r="1.4"/>
<circle class="st11" cx="139.6" cy="116.9" r="1.4"/>
<polygon class="st11" points="209.3,63.6 212.7,64.1 210.5,66.8 "/>
<polygon class="st11" points="188.7,92.2 185.3,92.7 187.4,95.4 "/>
<path class="st11" d="M139.4,95.2c1.1,0,1.1,0.9,2.3,0.9s1.1-0.9,2.2-0.9s1.1,0.9,2.3,0.9s1.1-0.9,2.3-0.9s1.1,0.9,2.3,0.9
	s1.1-0.9,2.3-0.9"/>
<path class="st11" d="M226.6,102.1c1.1,0,1.1,0.8,2.3,0.8s1.1-0.8,2.2-0.8s1.1,0.8,2.3,0.8s1.1-0.8,2.3-0.8s1.1,0.8,2.3,0.8
	s1.1-0.8,2.3-0.8"/>
<path class="st11" d="M159.8,75l-0.5-0.4c-1.3-0.8-1.3-1.4-1.3-1.6c0-0.6,0.5-1,1.1-0.9c0.3,0,0.5,0.2,0.7,0.4
	c0.2-0.3,0.5-0.4,0.8-0.4c0.6,0,1,0.4,1,1c0,0.2,0,0.8-1.2,1.6L159.8,75z"/>
<path class="st12" d="M43.1,58.9c0,2.8-2.3,5.1-5.1,5.1c-2.8,0-5.1-2.3-5.1-5.1c0-2.8,2.3-5.1,5.1-5.1l0,0
	C40.8,53.7,43.1,56,43.1,58.9z"/>
<line class="st2" x1="37.9" y1="65.8" x2="37.9" y2="67.7"/>
<line class="st2" x1="41.4" y1="64.8" x2="42.3" y2="66.5"/>
<line class="st2" x1="43.9" y1="62.3" x2="45.6" y2="63.2"/>
<line class="st2" x1="44.8" y1="58.8" x2="46.7" y2="58.8"/>
<line class="st2" x1="43.9" y1="55.4" x2="45.6" y2="54.5"/>
<line class="st2" x1="41.4" y1="52.9" x2="42.3" y2="51.2"/>
<line class="st2" x1="37.9" y1="52" x2="37.9" y2="50"/>
<line class="st2" x1="34.5" y1="52.9" x2="33.5" y2="51.2"/>
<line class="st2" x1="32" y1="55.4" x2="30.3" y2="54.5"/>
<line class="st2" x1="31" y1="58.8" x2="29.1" y2="58.8"/>
<line class="st2" x1="32" y1="62.3" x2="30.3" y2="63.2"/>
<line class="st2" x1="34.5" y1="64.8" x2="33.5" y2="66.5"/>
<line class="st0" x1="37.9" y1="0" x2="37.9" y2="55.5"/>
<path class="st1" d="M37.9,39.7L37.9,39.7c-6.8,0-11.6,5.2-11.6,13v6.6h23.1v-6.6C49.5,44.9,44.7,39.7,37.9,39.7z"/>
<rect class="st7" width="50.2" height="6.1"/>
</svg>
