<?xml version="1.0" encoding="utf-8"?>
<!-- Generator: Adobe Illustrator 22.0.0, SVG Export Plug-In . SVG Version: 6.00 Build 0)  -->
<svg version="1.1" id="OBJECTS" xmlns="http://www.w3.org/2000/svg" xmlns:xlink="http://www.w3.org/1999/xlink" x="0px" y="0px"
	 viewBox="0 0 274.2 244.1" style="enable-background:new 0 0 274.2 244.1;" xml:space="preserve">
<style type="text/css">
	.st0{fill:none;stroke:#007DEA;stroke-width:0.75;stroke-linejoin:round;}
	.st1{fill:#FFFFFF;stroke:#007DEA;stroke-width:0.75;stroke-linecap:round;stroke-linejoin:round;}
	.st2{fill:#DBEDFF;stroke:#007DEA;stroke-width:0.75;stroke-linecap:round;stroke-linejoin:round;}
	.st3{fill:#9EE493;}
	.st4{fill:none;stroke:#007DEA;stroke-width:0.75;stroke-linecap:round;stroke-linejoin:round;}
	.st5{fill:#9EE493;stroke:#007DEA;stroke-width:0.75;stroke-linecap:round;stroke-linejoin:round;}
	.st6{fill:#FFFFFF;}
	.st7{fill:#DBEDFF;}
	.st8{fill:#007DEA;}
	.st9{fill:none;stroke:#F865AF;stroke-width:0.5;stroke-linecap:round;stroke-linejoin:round;}
	.st10{fill:#F865AF;stroke:#007DEA;stroke-width:0.75;stroke-linecap:round;stroke-linejoin:round;}
	.st11{fill:none;stroke:#007DEA;stroke-width:0.5;stroke-linecap:round;stroke-linejoin:round;}
</style>
<title>5</title>
<line class="st0" x1="274.2" y1="217.5" x2="0.9" y2="217.5"/>
<polygon class="st1" points="89.9,222.9 83.6,222.9 104.4,132.8 110.7,132.8 "/>
<polygon class="st2" points="93.1,222.9 86.8,222.9 107.6,132.8 113.9,132.8 "/>
<polygon class="st1" points="136.9,222.9 143.2,222.9 122.4,132.8 116.1,132.8 "/>
<polygon class="st2" points="140.1,222.9 146.3,222.9 125.5,132.8 119.3,132.8 "/>
<path class="st1" d="M100.3,125.5H123c1.2,0,2.2,1,2.2,2.2v4.9c0,1.2-1,2.2-2.2,2.2h-22.7c-1.2,0-2.2-1-2.2-2.2v-4.9
	C98.1,126.4,99.1,125.5,100.3,125.5z"/>
<path class="st2" d="M104.8,125.5h22.7c1.2,0,2.2,1,2.2,2.2v4.9c0,1.2-1,2.2-2.2,2.2h-22.7c-1.2,0-2.2-1-2.2-2.2v-4.9
	C102.6,126.4,103.6,125.5,104.8,125.5z"/>
<path class="st1" d="M191.4,93.3c0.6-2.5,2.8-4.2,5.3-4.3h31.7c1.9-0.1,3.5,1.3,3.6,3.2c0,0.4,0,0.7-0.1,1.1l-13.4,62.2
	c-0.6,2.5-2.8,4.2-5.3,4.3h-31.7c-1.9,0.1-3.5-1.3-3.6-3.2c0-0.4,0-0.7,0.1-1.1L191.4,93.3z"/>
<path class="st2" d="M183.7,93.3c0.6-2.5,2.8-4.2,5.3-4.3h31.7c1.9-0.1,3.5,1.3,3.6,3.2c0,0.4,0,0.7-0.1,1.1l-13.4,62.2
	c-0.6,2.5-2.8,4.2-5.3,4.3h-31.6c-1.9,0.1-3.5-1.3-3.6-3.2c0-0.4,0-0.7,0.1-1.1L183.7,93.3z"/>
<rect x="191.2" y="157.6" class="st1" width="4.1" height="55.5"/>
<polygon class="st2" points="197.1,210.9 189.3,210.9 174.7,219.6 174.7,222.9 179.9,222.9 179.9,221.4 189.3,215.8 197.1,215.8 
	206.5,221.4 206.5,222.9 211.8,222.9 211.8,219.6 "/>
<rect x="166.8" y="157.6" class="st2" width="46.9" height="7.4"/>
<path class="st1" d="M152.9,118.8c0,0-8.9-2.4-9.2-2.4c-0.8,0.2-1.5,0.5-2.2,1c-0.6,0.4-3.9,4.6-4,6.2h15.4V118.8z"/>
<path class="st2" d="M185.6,86.4c0,0-3.2,2.2-7.7,14.7c-1.2,3.5-4.1,13.7-4.1,13.7l-21.5,3.8v5h31.3c0.9-0.1,1.6-0.7,1.9-1.6
	c0.1-0.8,4.4-25.2,4.4-27.5C190,91.4,186.5,87.5,185.6,86.4z"/>
<g id="_Group_">
	<path class="st1" d="M144.6,205c-1.2,3.3-2.2,6.6-3,10l-8-3.1l3.3-9.2L144.6,205z"/>
	<path class="st1" d="M124.5,215.8l17.2,4.8c-0.1,0.7-0.3,1.3-0.5,2c-0.2,0.4-0.8,0.3-0.8,0.3l-16.9-4.8c-3.3-0.9-6.4-2.1-9.6-3.4
		c-0.2-0.1-0.3-0.3-0.2-0.5c0.2-0.5,0.5-1,0.9-1.4c0.1-0.1,0.2-0.1,0.2-0.1c0.1,0,0.2,0,0.4,0c0.2,0.1,3.9,1.6,8.7,2.9L124.5,215.8z
		"/>
	<path class="st3" d="M137.3,206.6c0.3,0.2,0.4,2.3-1.4,3.2c-0.1-0.2-0.2-0.3-0.3-0.4c-0.7,0.6-1.5,1-2.4,1.2
		c-2.6,0.8-5.4,1.2-8.1,1.3c-0.4,0-1.1-1.1-1.1-1.1l0,0c-0.1-0.2-0.2-0.5-0.3-0.7l0,0c0.2-0.2,0.4-0.4,0.7-0.5
		c0.5-0.1,3.5,0.1,5.7-0.2s3.4-0.7,3.9-1.5c0.3-0.5,0.5-1.1,0.3-1.7c0.1-0.4,0.4-0.6,0.8-0.6h0.1C136,206.1,136.7,206.3,137.3,206.6
		z"/>
	<path class="st4" d="M135.3,205.9c0.7,0.2,1.4,0.5,2,0.8c0.3,0.2,0.4,2.3-1.4,3.2"/>
	<path class="st4" d="M123.7,210.2c0.2-0.2,0.4-0.4,0.7-0.5c0.5-0.1,3.5,0.1,5.7-0.2s3.4-0.7,3.9-1.5c0.3-0.5,0.5-1.1,0.3-1.7
		c0.1-0.4,0.4-0.6,0.8-0.6h0.1"/>
	<path class="st1" d="M133.5,210.1c0,0,1.8-1.1,2.4-0.3c0.5,0.9,1.2,2.5,2.6,2.7c1.6,0.2,3.7-0.6,3.9-0.1s0.3,3.7-0.8,8.2l-18.1-5.1
		c0.3-1.3,0.4-2.6,0.4-3.9v-0.7c0.2,0.2,0.4,0.3,0.7,0.3C127.7,211.2,130.6,210.9,133.5,210.1z"/>
	<path class="st1" d="M124,210.9c0.5,1.6,0.7,3.3,0.5,4.9l-0.6-0.2c-4.8-1.4-8.5-2.9-8.7-2.9c-0.1,0-0.2,0-0.4,0
		c0.4-0.7,0.8-1.4,1.3-2c0.5-0.5,1.2-0.8,1.9-0.8c0.6,0,5.1,0,5.5,0c0.1,0,0.2,0.1,0.3,0.3C123.8,210.4,123.9,210.7,124,210.9z"/>
	<path class="st1" d="M126.1,212.3c-0.3,0-0.6-0.2-0.6-0.5l0,0l-0.2-2c0-0.3,0.2-0.6,0.5-0.6l0,0l0,0c0.3,0,0.6,0.2,0.6,0.5l0.2,2
		C126.6,211.9,126.4,212.2,126.1,212.3C126.1,212.2,126.1,212.2,126.1,212.3L126.1,212.3z"/>
	<path class="st1" d="M128.8,212.1c-0.3,0.1-0.6-0.1-0.7-0.5l0,0l-0.4-2c-0.1-0.3,0.1-0.6,0.5-0.7l0,0c0.3-0.1,0.6,0.1,0.7,0.5
		l0.4,2C129.3,211.8,129.1,212.1,128.8,212.1L128.8,212.1z"/>
	<path class="st1" d="M131.3,211.7c-0.3,0.1-0.6-0.1-0.7-0.4l-0.6-2c-0.1-0.3,0.1-0.6,0.4-0.7l0,0c0.3-0.1,0.6,0.1,0.7,0.4l0.6,2
		C131.8,211.2,131.6,211.5,131.3,211.7L131.3,211.7z"/>
	<path class="st1" d="M133.9,211.2c-0.3,0.1-0.6,0-0.8-0.3l-0.8-1.9c-0.1-0.3,0-0.6,0.3-0.8l0,0l0,0c0.3-0.1,0.6,0,0.8,0.3l0.8,1.9
		C134.3,210.7,134.2,211,133.9,211.2L133.9,211.2L133.9,211.2z"/>
</g>
<path class="st2" d="M179.3,133.3c0,0-8.1,3.7-27.1,14.4c-2.9,1.6-4.1,5.6-5,8.7S135.7,204,135.7,204c3.3,1.3,6.8,2.3,10.3,2.9
	l0.7-4.8c0,0,6.6-16.2,8.8-21s7.6-21.3,7.6-21.3l38.1-13.2v-13.4h-21.9V133.3z"/>
<g id="_Group_2">
	<path class="st1" d="M159.4,205c-1.2,3.3-2.2,6.6-3,10l-8-3.1l3.3-9.2L159.4,205z"/>
	<path class="st1" d="M139.3,215.8l17.2,4.8c-0.1,0.7-0.3,1.3-0.5,2c-0.2,0.4-0.8,0.3-0.8,0.3l-17-4.8c-3.3-0.9-6.4-2.1-9.6-3.4
		c-0.2-0.1-0.3-0.3-0.2-0.5c0.2-0.5,0.5-1,0.9-1.4c0.1-0.1,0.2-0.1,0.2-0.1c0.1,0,0.2,0,0.4,0c0.2,0.1,3.9,1.6,8.7,2.9
		C138.9,215.7,139.1,215.8,139.3,215.8z"/>
	<path class="st5" d="M152.2,206.6c0.3,0.2,0.4,2.3-1.4,3.2c-0.1-0.1-0.2-0.3-0.3-0.4c-0.7,0.6-1.5,1-2.4,1.2
		c-2.6,0.8-5.4,1.2-8.1,1.3c-0.4,0-1.1-1.1-1.1-1.1l0,0c-0.1-0.2-0.2-0.5-0.3-0.7l0,0c0.2-0.2,0.5-0.4,0.8-0.5
		c0.5-0.1,3.5,0.1,5.7-0.2s3.4-0.7,3.9-1.5c0.3-0.5,0.5-1.1,0.3-1.7c0.1-0.4,0.5-0.6,0.9-0.5h0.1
		C150.9,206.1,151.5,206.3,152.2,206.6z"/>
	<path class="st4" d="M150.2,205.9c0.7,0.2,1.4,0.5,2,0.8c0.3,0.2,0.4,2.3-1.4,3.2"/>
	<path class="st4" d="M138.5,210.2c0.2-0.2,0.5-0.4,0.8-0.5c0.5-0.1,3.5,0.1,5.7-0.2s3.4-0.7,3.9-1.5c0.3-0.5,0.5-1.1,0.3-1.7
		c0.1-0.4,0.5-0.6,0.9-0.5h0.1"/>
	<path class="st1" d="M148.4,210.1c0,0,1.8-1.1,2.4-0.3s1.2,2.5,2.6,2.7c1.7,0.2,3.7-0.6,3.9-0.1s0.3,3.7-0.8,8.2l-18.1-5.1
		c0.3-1.3,0.4-2.6,0.4-3.9v-0.7c0.2,0.2,0.4,0.3,0.7,0.3C142.5,211.2,145.5,210.9,148.4,210.1z"/>
	<path class="st1" d="M138.9,210.9c0.5,1.6,0.7,3.3,0.5,4.9c-0.2-0.1-0.4-0.1-0.6-0.2c-4.8-1.4-8.5-2.9-8.7-2.9c-0.1,0-0.2,0-0.4,0
		c0.4-0.7,0.9-1.4,1.3-2c0.5-0.5,1.2-0.8,1.9-0.8c0.6,0,5.1,0,5.5,0c0.1,0,0.2,0.1,0.3,0.3C138.7,210.4,138.8,210.7,138.9,210.9z"/>
	<path class="st1" d="M140.9,212.3c-0.3,0-0.6-0.2-0.6-0.5l-0.2-2c0-0.3,0.2-0.6,0.5-0.6l0,0c0.3,0,0.6,0.2,0.6,0.5l0,0l0.2,2
		C141.5,211.9,141.2,212.2,140.9,212.3C140.9,212.2,140.9,212.2,140.9,212.3L140.9,212.3z"/>
	<path class="st1" d="M143.6,212.1c-0.3,0.1-0.6-0.1-0.7-0.4l0,0l-0.4-2c-0.1-0.3,0.1-0.6,0.5-0.7l0,0c0.3-0.1,0.6,0.1,0.7,0.5l0,0
		l0.4,2C144.1,211.8,143.9,212.1,143.6,212.1L143.6,212.1L143.6,212.1z"/>
	<path class="st1" d="M146.2,211.7c-0.3,0.1-0.6-0.1-0.7-0.4l-0.6-2c-0.1-0.3,0.1-0.6,0.4-0.7l0,0c0.3-0.1,0.6,0.1,0.7,0.4l0.6,2
		C146.7,211.2,146.5,211.5,146.2,211.7L146.2,211.7z"/>
	<path class="st1" d="M148.7,211.2c-0.3,0.1-0.6,0-0.8-0.3l0,0l-0.8-1.9c-0.1-0.3,0-0.6,0.3-0.8l0,0l0,0c0.3-0.1,0.6,0,0.8,0.3l0,0
		l0.8,1.9C149.2,210.7,149,211.1,148.7,211.2L148.7,211.2z"/>
</g>
<path class="st1" d="M187.9,135.4c0,0-8.5,4.5-22.2,13.1c-2.8,1.8-3.6,4.4-4.4,7.5s-10.7,48-10.7,48c3.3,1.3,6.8,2.3,10.3,2.9
	l0.7-4.8c0,0,6.6-16.2,8.8-21s7.6-21.3,7.6-21.3s14.5-0.7,19.2-1.5c15.5-2.7,9.8-22.9,9.8-22.9H187.9z"/>
<path class="st1" d="M207.7,82c0,0,7.5,4.3,9.3,5.4s2.6,3.6,1.2,8.3s-10.3,32.2-10.1,34.5s1.1,5.9,1.1,5.9s-5.4,3.2-21.9,2
	c-8.7-0.7-10.1-3.7-10.1-3.7s0.6-28.6,4-38.6c1.5-4.4,3.5-8.6,4.7-9.6s5.1-4.5,5.1-4.5L207.7,82z"/>
<path class="st5" d="M184.1,52.4c-0.9,2.1-1.4,4.3-1.6,6.5c-0.2,3.3,1.7,4.9,4.2,4.9V52.4H184.1z"/>
<path class="st6" d="M205.7,69c-0.3,2.7-0.4,5.3-0.3,8c0.2,2,0.8,3.9,1.8,5.6c0,0-3.1,6.2-12.2,4.5c-3.9-0.7-4-4.2-3.4-5.1
	s3.7-3.5,3.7-13.1L205.7,69z"/>
<path class="st7" d="M205.3,75.3c0-2.9,0.4-6.3,0.4-6.3h-10.4c0,9.6-3.2,12.2-3.7,13.1c-0.3,0.8-0.3,1.7,0.1,2.4
	C198.3,83.4,203.1,78,205.3,75.3z"/>
<path class="st4" d="M205.7,69c-0.3,2.7-0.4,5.3-0.3,8c0.2,2,0.8,3.9,1.8,5.6c0,0-3.1,6.2-12.2,4.5c-3.9-0.7-4-4.2-3.4-5.1
	s3.7-3.5,3.7-13.1L205.7,69z"/>
<path class="st1" d="M189.9,48.7c-4.6,3.6-5.2,8.2-4.8,13c0.3,2.5,0.4,5,0.4,7.4c0,2.5,2.8,8.6,5.9,8.8c3.5,0.3,11.1-2,14-7.7
	c3.7-1.6,6.5-4.9,6.2-12.9C211.2,47.8,198.8,41.8,189.9,48.7z"/>
<path class="st5" d="M184.1,52.4c0,0,5.1,7.6,19.1,9.2l1.8,4.3c0.5-0.4,0.9-0.9,1.1-1.4l1.3-2l-0.1,6.2l-1.6,1.6l-0.4,5
	c0,0,3.1-3.4,4.6-5.5c2.1-3.2,3.3-6.9,3.4-10.7c0.1-6-3.7-11.5-9.4-13.4C196.5,43.2,188.1,45.8,184.1,52.4z"/>
<path class="st6" d="M206.6,64.4c-0.1-0.4,0-0.7,0.2-1c0.7-1,1.8-1.7,3-1.8c2.4-0.1,1.8,3.8,0.5,5.9c-1.1,1.6-2.9,2.7-4.9,2.8
	C205.6,68.3,206,66.3,206.6,64.4z"/>
<path class="st4" d="M206.1,64.5c0,0,1.3-2.8,3.7-2.9s1.8,3.8,0.5,5.9c-1.1,1.6-2.9,2.7-4.9,2.8"/>
<path class="st8" d="M196.5,63.7c-0.1,0.6-0.7,1-1.2,0.9c-0.6-0.1-1-0.7-0.9-1.2s0.5-0.9,1-0.9C196,62.5,196.5,63,196.5,63.7z"/>
<path class="st8" d="M187.8,64.4c0,0.6-0.3,1.2-0.8,1.2s-0.9-0.4-1-1.1c-0.1-0.7,0.3-1.2,0.8-1.3S187.7,63.8,187.8,64.4z"/>
<path class="st4" d="M189.8,69.7c0,0-0.7-0.3-0.5-1.5"/>
<path class="st9" d="M189.9,73c1.5,0.2,3-0.1,4.2-1"/>
<path class="st4" d="M193.5,60.6c0,0,1.1-0.7,3.7-0.3"/>
<path class="st4" d="M187.5,60.8c-0.5-0.2-1.1-0.3-1.6-0.2"/>
<polygon class="st1" points="205.4,77.4 193.1,86.4 200.3,92.5 207.7,82 "/>
<polygon class="st1" points="193.1,86.4 193.6,78.9 190.6,81.4 187.1,89 "/>
<path class="st1" d="M182.4,118.8c0,0-8.9-2.4-9.2-2.4c-0.8,0.2-1.5,0.6-2.2,1c-0.6,0.4-3.9,4.6-4,6.2h15.4V118.8z"/>
<path class="st6" d="M218.2,88.5c0,0-8.4,1.3-12.9,12.4l-2.1,13.9l-21.5,3.8v5H213c0.9-0.1,1.6-0.7,1.9-1.6
	c0.1-0.8,4.3-25.2,4.4-27.5C219.4,91.4,219.2,89.7,218.2,88.5z"/>
<path class="st4" d="M206,95.9l-2.8,18.9l-21.5,3.8v5H213c0.9-0.1,1.6-0.7,1.9-1.6c0.1-0.8,4.3-25.2,4.4-27.5c0.1-3.1-0.2-4.8-1.1-6
	"/>
<polygon class="st1" points="174,222.9 167.7,222.9 188.5,132.8 194.8,132.8 "/>
<polygon class="st2" points="177.2,222.9 170.9,222.9 191.7,132.8 198,132.8 "/>
<polygon class="st1" points="221,222.9 227.3,222.9 206.5,132.8 200.2,132.8 "/>
<polygon class="st2" points="224.2,222.9 230.4,222.9 209.6,132.8 203.4,132.8 "/>
<path class="st1" d="M184.4,125.5h22.7c1.2,0,2.2,1,2.2,2.2v4.9c0,1.2-1,2.2-2.2,2.2h-22.7c-1.2,0-2.2-1-2.2-2.2v-4.9
	C182.2,126.4,183.2,125.5,184.4,125.5z"/>
<path class="st2" d="M188.9,125.5h22.7c1.2,0,2.2,1,2.2,2.2v4.9c0,1.2-1,2.2-2.2,2.2h-22.7c-1.2,0-2.2-1-2.2-2.2v-4.9
	C186.7,126.4,187.7,125.5,188.9,125.5z"/>
<rect x="73.7" y="123.6" class="st1" width="166.8" height="5.1"/>
<rect x="164.9" y="123.6" class="st2" width="75.5" height="5.1"/>
<rect x="123.7" y="120.7" class="st1" width="43.9" height="2.8"/>
<polygon class="st2" points="191,123.6 167.6,123.6 167.6,120.7 189.3,122.4 "/>
<path class="st2" d="M159.4,108.2c0.2,0.9-0.3,1.7-1.2,2c-0.1,0-0.3,0.1-0.5,0H96.9c-1.2,0-2.1-0.9-2.4-2l-7.3-41.6
	c-0.2-0.9,0.3-1.7,1.2-2c0.2,0,0.3-0.1,0.5,0h60.9c1.2,0,2.1,0.9,2.3,2L159.4,108.2z"/>
<path class="st10" d="M157.1,108.2c0.2,0.9-0.3,1.8-1.2,2c-0.1,0-0.3,0-0.4,0h-61c-1.2,0-2.1-0.9-2.4-2l-7.3-41.6
	c-0.2-0.9,0.3-1.7,1.2-2c0.1,0,0.3-0.1,0.5,0h60.9c1.2,0,2.1,0.9,2.4,2L157.1,108.2z"/>
<path class="st1" d="M113.3,92.5c0,0-3.7,0.8-4.7,5.5c-1.5,7.8-2.8,19.9-3.2,22c-0.4,2.1,0.4,3.6,3.4,3.6h13.9
	c-2.9,0-3.8-1.5-3.4-3.6s1.7-14.2,3.2-22c1-4.8,4-5.5,4-5.5H113.3z"/>
<path class="st2" d="M122,123.6c-2.9,0-3.8-1.5-3.4-3.6s1.7-14.2,3.2-22c1-4.8,4.7-5.5,4.7-5.5l0.5,2.8c0,0-2,0.1-2.9,4.3
	c-1.3,6.7-2.4,17.1-2.8,18.9s0.6,2.3,3.2,2.3h8.1l2.1,2.8L122,123.6z"/>
<path class="st6" d="M118.8,86.2l-1.5-0.8c-3.7-2-4.1-3.5-4.2-4c-0.4-0.9,0.1-1.9,1-2.3c0.2-0.1,0.5-0.1,0.7-0.1
	c0.9,0,1.7,0.4,2.3,1.1c0.3-0.7,1-1.1,1.7-1.1c1.4,0.1,2.7,1,3.1,2.4c0.1,0.6,0.6,2-2,4L118.8,86.2z"/>
<polygon class="st1" points="204.5,123.6 194.8,123.6 193.6,109.7 205.7,109.7 "/>
<polygon class="st1" points="205.4,108.9 193.9,108.9 194.7,105.6 204.6,105.6 "/>
<rect x="192.6" y="107.9" class="st1" width="14" height="3.2"/>
<polygon class="st2" points="205,120.7 205.7,113.2 193.6,113.2 194.2,120.7 "/>
<path class="st2" d="M63.2,152.3c0,16.2-4,24.6-8.9,24.6s-8.9-8.4-8.9-24.6s4-34,8.9-34S63.2,136.1,63.2,152.3z"/>
<line class="st11" x1="54.4" y1="118.3" x2="54.4" y2="176.9"/>
<polyline class="st11" points="46.5,165.1 54.4,172.9 62.2,165.1 "/>
<polyline class="st11" points="45.5,150.4 54.4,159.2 63.2,150.4 "/>
<polyline class="st11" points="46.5,137.7 54.4,145.5 62.2,137.7 "/>
<polyline class="st11" points="48.9,126.4 54.4,131.9 59.8,126.4 "/>
<path class="st1" d="M46.1,155.6c5,12.5,4.5,20.3,0.7,21.8s-9.5-3.8-14.5-16.4s-7.3-27.5-3.5-29S41.1,143.1,46.1,155.6z"/>
<line class="st11" x1="28.8" y1="132" x2="46.9" y2="177.4"/>
<polyline class="st11" points="37.1,170.7 45.6,174.3 49.3,165.9 "/>
<polyline class="st11" points="31.8,159.6 41.4,163.7 45.5,154.1 "/>
<polyline class="st11" points="28.6,149.5 37.2,153.1 40.8,144.6 "/>
<polyline class="st11" points="27,140 33,142.5 35.5,136.6 "/>
<path class="st1" d="M61.9,159c-4.3,10.7-3.9,17.3-0.6,18.6c3.2,1.3,8.1-3.2,12.3-13.9s6.3-23.5,3.1-24.8S66.2,148.3,61.9,159z"/>
<line class="st11" x1="76.8" y1="138.8" x2="61.3" y2="177.6"/>
<polyline class="st11" points="69.6,171.8 62.4,174.9 59.3,167.7 "/>
<polyline class="st11" points="74.2,162.4 66,165.9 62.5,157.7 "/>
<polyline class="st11" points="76.9,153.7 69.6,156.9 66.5,149.6 "/>
<polyline class="st11" points="78.3,145.6 73.2,147.8 71,142.7 "/>
<polygon class="st1" points="66.2,211.3 42.5,211.3 37.4,173.9 71.4,173.9 "/>
<rect x="38.3" y="193.7" class="st1" width="3" height="27"/>
<rect x="67.4" y="193.7" class="st1" width="3" height="27"/>
<rect x="41.3" y="211.3" class="st1" width="26.1" height="2.8"/>
<rect x="41.3" y="198.6" class="st1" width="26.1" height="2.8"/>
<rect x="52.9" y="193.7" class="st1" width="3" height="27"/>
<path class="st2" d="M253.4,28.3c0,8.3-6.7,15-15,15s-15-6.7-15-15s6.7-15,15-15S253.4,20,253.4,28.3L253.4,28.3z"/>
<path class="st1" d="M251.4,28.3c0,8.3-6.7,15-15,15s-15-6.7-15-15s6.7-15,15-15S251.4,20,251.4,28.3L251.4,28.3z"/>
<circle class="st1" cx="236.4" cy="28.3" r="12.6"/>
<path class="st8" d="M237.3,28.3c0,0.6-0.4,1-1,1s-1-0.4-1-1s0.4-1,1-1S237.3,27.8,237.3,28.3z"/>
<path class="st8" d="M236.9,28c0,0.3-0.2,0.5-0.5,0.5l0,0l0,0c-0.3,0-0.5-0.2-0.5-0.5v-8.8c0-0.3,0.2-0.5,0.5-0.5l0,0l0,0
	c0.3,0,0.5,0.2,0.5,0.5V28z"/>
<path class="st8" d="M236.2,27.8c0.2,0.1,0.3,0.4,0.2,0.7l0,0l0,0c-0.1,0.3-0.5,0.3-0.7,0.2l0,0l-5-2.9c-0.2-0.1-0.3-0.5-0.2-0.7
	l0,0c0.1-0.2,0.5-0.3,0.7-0.2L236.2,27.8z"/>
<path class="st0" d="M115.8-40"/>
<line class="st11" x1="156.5" y1="18.3" x2="158.5" y2="20.3"/>
<line class="st11" x1="158.5" y1="18.3" x2="156.5" y2="20.3"/>
<line class="st11" x1="230.9" y1="72.1" x2="232.9" y2="74.1"/>
<line class="st11" x1="232.9" y1="72.1" x2="230.9" y2="74.1"/>
<circle class="st11" cx="74.6" cy="47.1" r="1.4"/>
<polygon class="st11" points="205.5,24.1 208.9,24.6 206.7,27.3 "/>
<path class="st11" d="M82.6,7.1c1.1,0,1.1,0.8,2.3,0.8s1.1-0.8,2.2-0.8S88.3,8,89.4,8s1.1-0.8,2.3-0.8S92.8,8,93.9,8
	s1.1-0.8,2.3-0.8"/>
<path class="st11" d="M46.1,97.5c1.1,0,1.1,0.9,2.3,0.9s1.1-0.9,2.2-0.9s1.1,0.9,2.3,0.9s1.1-0.9,2.2-0.9s1.1,0.9,2.3,0.9
	s1.1-0.9,2.3-0.9"/>
<g>
	<polygon class="st9" points="163.8,49.4 160.5,50 162.6,52.6 	"/>
	<polygon class="st9" points="122.6,31.7 119.3,32.3 121.4,34.9 	"/>
	<path class="st9" d="M243.2,112.4c1.1,0,1.1,0.8,2.2,0.8s1.1-0.8,2.3-0.8s1.1,0.8,2.2,0.8s1.1-0.8,2.3-0.8s1.1,0.8,2.3,0.8
		s1.1-0.8,2.3-0.8"/>
	<path class="st9" d="M56.9,71.8l-0.5-0.3c-1.3-0.8-1.3-1.4-1.3-1.6c0-0.6,0.4-1,1-1c0.3,0,0.6,0.2,0.8,0.4c0.2-0.3,0.5-0.5,0.8-0.5
		c0.6,0,1,0.4,1,1c0,0.2,0,0.8-1.2,1.6L56.9,71.8z"/>
</g>
</svg>
