<?xml version="1.0" standalone="no"?>
<!DOCTYPE svg PUBLIC "-//W3C//DTD SVG 20010904//EN"
 "http://www.w3.org/TR/2001/REC-SVG-20010904/DTD/svg10.dtd">
<svg version="1.0" xmlns="http://www.w3.org/2000/svg"
 width="150.000000pt" height="189.000000pt" viewBox="0 0 150.000000 189.000000"
 preserveAspectRatio="xMidYMid meet">

<g transform="translate(0.000000,189.000000) scale(0.100000,-0.100000)"
fill="#000000" stroke="none">
<path d="M542 1188 c-7 -7 -12 -24 -12 -38 0 -33 17 -50 50 -50 33 0 50 17 50
50 0 14 -5 31 -12 38 -15 15 -61 15 -76 0z m66 -31 c2 -12 -3 -17 -17 -17 -12
0 -21 6 -21 13 0 31 32 34 38 4z"/>
<path d="M977 1182 c-23 -25 -21 -55 3 -77 48 -43 108 28 64 76 -22 24 -46 24
-67 1z m41 -29 c-2 -10 -10 -18 -18 -18 -8 0 -16 8 -18 18 -2 12 3 17 18 17
15 0 20 -5 18 -17z"/>
<path d="M195 913 c-48 -100 37 -407 159 -576 70 -98 209 -218 230 -197 20 20
-60 400 -111 528 -32 81 -79 156 -124 198 -42 38 -110 84 -125 84 -7 0 -20
-17 -29 -37z"/>
<path d="M1325 928 c-95 -50 -178 -167 -229 -323 -47 -145 -105 -450 -89 -466
14 -14 117 65 185 141 69 78 136 203 178 335 49 153 52 318 5 331 -5 2 -28 -6
-50 -18z"/>
</g>
</svg>
