<?xml version="1.0" encoding="utf-8"?>
<!-- Generator: Adobe Illustrator 22.0.0, SVG Export Plug-In . SVG Version: 6.00 Build 0)  -->
<svg version="1.1" id="Camada_1" xmlns="http://www.w3.org/2000/svg" xmlns:xlink="http://www.w3.org/1999/xlink" x="0px" y="0px"
	 viewBox="0 0 238 238" style="enable-background:new 0 0 238 238;" xml:space="preserve">
<style type="text/css">
	.st0{fill:#EFB381;}
	.st1{fill:#C84630;}
	.st2{fill:#FCD0A1;}
	.st3{fill:#FFFFFF;}
	.st4{fill:#FF6F59;}
	.st5{fill:#45403C;}
</style>
<g id="Logo_maior">
	<g id="Corujinha_completa">
		<path class="st0" d="M169,118.9c-0.3-4.5-1.1-9.1-1.9-13.3c0-0.1,0-0.1,0-0.1c-1.2-6.1-2.7-11.1-3.2-12.9v-0.1
			c-0.6-2.1-1.1-3.9-1.5-5.1l0,0c-0.9-2.7-1.8-5-2.5-6.5c-0.1-0.3-0.2-0.5-0.3-0.7c-0.3-0.7-0.5-1.5-0.6-2.3c0-0.1,0.1-0.1,0.1-0.1
			c-0.1-0.3-0.1-0.7-0.1-1c0-0.8,0.1-1.7,0.3-2.8c0.6-3.6,2-6,2.9-9c0.7-2.4,1.2-5.1,1.6-7.7c0.7-4,0.9-7.2,0.7-8.8
			c0-0.5-0.2-0.9-0.4-1.1c-0.4-0.3-1-0.3-1.4,0l-0.1,0.1c-0.1,0.1-0.1,0.2-0.2,0.2c-0.2,0.2-0.4,0.5-0.6,0.7c-0.3,0.3-0.6,0.7-1,1.1
			c-0.3,0.4-0.7,0.8-1.1,1.2c-0.2,0.3-0.5,0.6-0.8,0.9c-0.1,0.1-0.2,0.2-0.3,0.4c-0.1,0.1-0.2,0.2-0.3,0.4l0,0l0,0
			c-0.1,0.2-0.3,0.3-0.4,0.5c-0.4,0.5-0.9,0.9-1.2,1.3c-0.2,0.2-0.4,0.4-0.6,0.6c-0.3,0.3-0.5,0.5-0.8,0.8c-0.4,0.3-0.7,0.7-1.1,1.1
			c-0.6,0.6-1.2,1.1-1.8,1.7c-0.3,0.3-0.6,0.6-1,0.9c-0.6,0.5-1.2,1-1.8,1.5c-0.9,0.7-1.8,1.4-2.7,2.1c-0.2,0.1-0.3,0.2-0.5,0.3
			c-0.9,0.7-1.8,1.3-2.7,1.9c-0.6,0.4-1.2,0.8-1.9,1.1c-0.3,0.2-0.6,0.3-0.9,0.5s-0.5,0.3-0.8,0.4c-0.5,0.3-1,0.5-1.4,0.7
			c-0.4,0.2-1,0.5-1.4,0.7c-0.3,0.1-0.5,0.2-0.8,0.3s-0.5,0.2-0.8,0.3c-0.2,0.1-0.5,0.2-0.7,0.3s-0.5,0.2-0.7,0.3s-0.5,0.2-0.7,0.3
			c-1,0.4-2,0.7-2.9,1c-0.5,0.2-0.9,0.3-1.4,0.5l-0.7,0.2c-0.5,0.1-0.9,0.3-1.3,0.4c-0.4,0.1-0.9,0.2-1.2,0.3
			c-0.2,0.1-0.4,0.1-0.6,0.2c-0.2,0.1-0.4,0.1-0.6,0.1c-0.2,0.1-0.4,0.1-0.6,0.1c-0.1,0.1-0.3,0.1-0.4,0.1c-0.4,0.1-0.8,0.2-1.2,0.2
			c-0.2,0.1-0.3,0.1-0.5,0.1c-0.2,0.1-0.3,0.1-0.5,0.1c-0.7,0.1-1.3,0.2-1.9,0.3c-0.3,0.1-0.6,0.1-0.9,0.1s-0.6,0-0.9-0.1
			c-0.5-0.1-1.1-0.2-1.9-0.3c-0.2,0-0.3-0.1-0.5-0.1s-0.3-0.1-0.5-0.1c-0.4-0.1-0.7-0.2-1.2-0.2c-0.1-0.1-0.3-0.1-0.4-0.1
			c-0.2-0.1-0.4-0.1-0.6-0.1c-0.2-0.1-0.4-0.1-0.6-0.1c-0.2-0.1-0.4-0.1-0.6-0.2c-0.4-0.1-0.8-0.2-1.2-0.3c-1.2-0.3-2.6-0.7-4.1-1.2
			c-0.5-0.2-1-0.3-1.4-0.5c-0.2-0.1-0.5-0.2-0.7-0.3s-0.5-0.2-0.7-0.3s-0.5-0.2-0.7-0.3s-0.5-0.2-0.8-0.3c-0.5-0.2-1-0.5-1.5-0.7
			s-1-0.5-1.4-0.7c-0.5-0.2-1-0.5-1.4-0.7c-0.3-0.1-0.5-0.3-0.8-0.4c-0.3-0.2-0.6-0.3-0.9-0.5c-0.6-0.3-1.2-0.7-1.9-1.1
			c-0.9-0.6-1.8-1.2-2.7-1.9c-0.2-0.1-0.3-0.2-0.5-0.3c-0.9-0.7-1.8-1.4-2.7-2.1c-0.6-0.5-1.2-1-1.8-1.5c-0.3-0.3-0.6-0.6-1-0.9
			c-0.6-0.6-1.2-1.1-1.8-1.7c-0.4-0.3-0.7-0.7-1.1-1.1c-0.3-0.3-0.6-0.6-0.8-0.8c-0.8-0.8-1.6-1.6-2.3-2.3c0,0,0-0.1-0.1-0.1
			c-0.2-0.2-0.5-0.5-0.7-0.7c-1.1-1.1-2-2.2-2.8-3.1c-0.2-0.2-0.4-0.5-0.6-0.7c-0.1-0.1-0.1-0.2-0.2-0.2c0-0.1-0.1-0.1-0.1-0.1
			c-0.4-0.3-1-0.3-1.4,0c-0.2,0.2-0.4,0.6-0.4,1c-0.2,2,0.1,6.6,1.3,11.8c0.3,1.6,0.7,3.1,1.1,4.6c0.9,3,2.3,5.4,2.9,9
			c0.5,3.1,0.4,4.4-0.3,6.2c-0.1,0.2-0.2,0.5-0.3,0.7c-0.7,1.5-1.6,3.8-2.5,6.5l0,0c-0.4,1.2-0.9,2.9-1.5,5.1v0.1
			c-0.6,1.9-2,6.9-3.2,12.9c0,0.1,0,0.1,0,0.1c-0.9,4.2-1.6,8.9-1.9,13.3c-0.1,1.1-0.1,2.3-0.1,3.4l0,0c0,0.7,0,1.5,0,2.2
			c0,1.8,0.1,3.5,0.2,5.1c0.3,3.7,0.9,7,1.5,9.9c1.2,5.5,2.6,9.3,3,10.2c8.2,20.9,24.3,31.3,28.8,34.1c5.4,3.3,10.5,5.3,14.6,6.6
			c0.2,0.1,0.5,0.1,0.6,0.2c1,0.3,2,0.3,3,0c0.2-0.1,0.4-0.1,0.6-0.2c4.1-1.3,9.1-3.3,14.6-6.6c4.5-2.7,20.6-13.2,28.8-34.1
			c0.3-0.9,1.8-4.7,3-10.2c0.6-2.8,1.2-6.2,1.5-9.9c0.1-1.6,0.2-3.3,0.2-5.1c0-0.7,0-1.5,0-2.2l0,0C169.2,121.1,169.1,120,169,118.9
			z"/>
		<path id="asa_esquerda_1_" class="st1" d="M68.5,114c0.5-0.3,1-0.4,1.5-0.2c1.4,0.6,3.3,1.5,5.5,3C91,127,95.3,147.9,99.6,171.2
			c0.6,3.3,1.3,7.2,1.9,11.6c0.2,1.2-1.2,2.2-2.3,1.5c-6.4-4-18.3-13-25.6-29.2C65.1,135.9,62.9,118.1,68.5,114z"/>
		<path id="asa_direita_1_" class="st1" d="M169.4,114c-0.5-0.3-1-0.4-1.5-0.2c-1.4,0.6-3.3,1.5-5.5,3
			c-15.5,10.3-19.8,31.2-24.2,54.5c-0.6,3.3-1.3,7.2-1.9,11.6c-0.2,1.2,1.2,2.2,2.3,1.5c6.4-4,18.3-13,25.6-29.2
			C172.9,135.9,175.1,118.1,169.4,114z"/>
		<path class="st2" d="M164,47.3c-1.9,7-5.3,16.2-11,21.6c-0.1,0.1-0.1,0.1-0.1,0.1c-0.2,0.2-0.3,0.3-0.5,0.5
			c-0.9,0.8-1.9,1.5-2.9,2.2c-0.9,0.6-1.9,1.2-2.8,1.8l0,0c-0.3,0.2-0.6,0.3-0.9,0.5c-1,0.6-2,1.1-3,1.6c-2,1.1-4.1,2-6.1,3
			c-2.6,1.2-5.1,2.5-7.3,4c-2.7,1.7-5.1,3.6-6.9,6.1c-0.6,0.9-1.1,1.7-1.6,2.7c-0.7,1.4-0.7,1.6-0.7,1.6c-0.3,0.9-0.5,1.5-1,1.8
			c-0.6,0.2,0.1,0.2-0.5,0c-0.5-0.2-0.7-0.7-1-1.7c-0.1-0.2-0.2-0.6-0.6-1.4c-0.5-1-1-1.9-1.7-2.8c-1.8-2.4-4.2-4.4-6.9-6.1
			c-2.3-1.4-4.8-2.7-7.3-4c-2-1-4-2-6.1-3c-1-0.5-2-1.1-3-1.6c-0.3-0.2-0.6-0.3-0.9-0.5l0,0c-1-0.6-1.9-1.2-2.8-1.8
			c-1-0.7-1.9-1.4-2.9-2.2c-0.2-0.2-0.3-0.3-0.5-0.5c-0.1-0.1-0.1-0.1-0.1-0.1c-5.7-5.4-9.1-14.5-11-21.6c0.4-0.3,1-0.3,1.4,0
			l0.1,0.1c0.1,0.1,0.1,0.2,0.2,0.2c0.2,0.2,0.4,0.5,0.6,0.7c0.8,0.9,1.7,1.9,2.8,3.1c0.2,0.2,0.5,0.5,0.7,0.7c0,0,0.1,0,0.1,0.1
			c0.7,0.7,1.5,1.5,2.3,2.3c0.3,0.3,0.5,0.5,0.8,0.8c0.4,0.3,0.7,0.7,1.1,1.1c0.6,0.6,1.2,1.1,1.8,1.6c0.3,0.3,0.6,0.6,1,0.9
			c0.6,0.5,1.2,1,1.8,1.5c0.9,0.7,1.8,1.4,2.7,2.1c0.2,0.1,0.3,0.2,0.5,0.3c0.9,0.7,1.8,1.2,2.7,1.9c0.6,0.4,1.2,0.8,1.9,1.1
			c0.3,0.2,0.6,0.3,0.9,0.5s0.5,0.3,0.8,0.4c0.5,0.3,1,0.5,1.4,0.7c0.5,0.2,1,0.5,1.4,0.7c0.5,0.2,1,0.5,1.5,0.7
			c0.3,0.1,0.5,0.2,0.8,0.3c0.2,0.1,0.5,0.2,0.7,0.3s0.5,0.2,0.7,0.3s0.5,0.2,0.7,0.3c0.5,0.2,1,0.3,1.4,0.5
			c1.4,0.5,2.8,0.9,4.1,1.2c0.4,0.1,0.9,0.2,1.2,0.3c0.2,0.1,0.4,0.1,0.6,0.2c0.2,0.1,0.4,0.1,0.6,0.1c0.2,0.1,0.4,0.1,0.6,0.1
			c0.1,0.1,0.3,0.1,0.4,0.1c0.4,0.1,0.8,0.2,1.2,0.2c0.2,0.1,0.3,0.1,0.5,0.1c0.2,0.1,0.3,0.1,0.5,0.1c1.8,0.3,3.6,0.3,5.4,0
			c0.2,0,0.3-0.1,0.5-0.1s0.3-0.1,0.5-0.1c0.4-0.1,0.7-0.2,1.2-0.2c0.1-0.1,0.3-0.1,0.4-0.1c0.2-0.1,0.4-0.1,0.6-0.1
			c0.2-0.1,0.4-0.1,0.6-0.1c0.2-0.1,0.4-0.1,0.6-0.2c0.4-0.1,0.8-0.2,1.2-0.3c0.5-0.1,0.9-0.2,1.3-0.3l0.7-0.2
			c0.5-0.1,0.9-0.3,1.4-0.5c0.9-0.3,1.9-0.6,2.9-1c0.2-0.1,0.5-0.2,0.7-0.3s0.5-0.2,0.7-0.3s0.5-0.2,0.7-0.3
			c0.3-0.1,0.5-0.2,0.8-0.3s0.5-0.2,0.8-0.3c0.5-0.2,1-0.5,1.4-0.7c0.5-0.2,1-0.5,1.4-0.7c0.3-0.1,0.5-0.3,0.8-0.4
			c0.3-0.2,0.6-0.3,0.9-0.5c0.6-0.3,1.2-0.7,1.9-1.1c0.9-0.6,1.8-1.2,2.7-1.9c0.2-0.1,0.3-0.2,0.5-0.3c0.9-0.7,1.8-1.4,2.7-2.1
			c0.6-0.5,1.2-1,1.8-1.5c0.3-0.3,0.6-0.6,1-0.9c0.6-0.6,1.2-1.1,1.8-1.6c0.4-0.3,0.7-0.7,1.1-1.1c0.3-0.3,0.6-0.5,0.8-0.8
			c0.2-0.2,0.4-0.4,0.6-0.6c0.5-0.5,0.9-0.9,1.2-1.3c0.1-0.2,0.3-0.3,0.4-0.4l0,0l0,0c0.1-0.1,0.2-0.2,0.3-0.4
			c0.1-0.1,0.2-0.2,0.3-0.3c0.3-0.3,0.5-0.6,0.8-0.9c0.4-0.4,0.7-0.8,1.1-1.2c0.3-0.4,0.7-0.7,1-1.1c0.2-0.2,0.4-0.5,0.6-0.7
			c0.1-0.1,0.1-0.2,0.2-0.2c0-0.1,0.1-0.1,0.1-0.1C163,47,163.6,47,164,47.3z"/>
		<path id="rosto_3_" class="st3" d="M159.7,97.9c-0.5,7.3-4.8,12.3-6.5,14c-1.8,1.9-4.1,4.7-9.8,8.9l0,0c-1.4,1-3,2.1-4.7,3.3
			c-3.2,2.1-7.2,4.5-12.1,7.2c-4.8,2.6-10.7,2.6-15.5,0c-4.9-2.6-8.9-5.1-12.1-7.2c-1.8-1.2-3.3-2.3-4.7-3.3l0,0
			c-5.7-4.2-7.9-7-9.8-8.9c-1.6-1.7-6.1-6.6-6.5-14c-0.1-0.9-0.1-1.7,0-2.5c0.4-5.3,2.9-9.4,4.8-12.4c2.8-4.5,6-7.4,8.2-9.1h0.1l0,0
			c0.3,0.1,0.6,0.2,0.9,0.2c4.3,1.2,8.9,2.7,13.8,4.8c2.2,0.9,4.2,1.8,6.2,2.7c4.4,2,9.4,2,13.7,0c1.9-0.9,4-1.8,6.2-2.7
			c4.9-2,9.6-3.6,13.8-4.8c0.3-0.1,0.6-0.2,0.9-0.2l0,0h0.1c2.2,1.7,5.4,4.7,8.2,9.1c1.9,3.1,4.4,7.2,4.8,12.4
			C159.8,96.3,159.8,97.1,159.7,97.9z"/>
		<path id="bico_2_" class="st4" d="M123.6,107c0,0-0.2,1.9-3.4,6.4c-0.8,1.1-2.4,1.1-3.2,0c-3.2-4.4-3.4-6.4-3.4-6.4
			c-0.1-0.9-0.2-2.1,0.6-3.2c1.3-1.8,4.1-1.6,4.4-1.6s3.1-0.2,4.4,1.6C123.8,104.9,123.8,106.2,123.6,107z"/>
		<g id="Olhos_3_">
			<path class="st5" d="M105,95.8c-0.3-2-1.9-3.6-3.9-3.9c-3.3-0.6-6.1,2.3-5.6,5.6c0.3,2,1.9,3.6,3.9,3.9
				C102.8,101.9,105.5,99,105,95.8z M101.1,97.6c-1,0-1.8-0.8-1.8-1.8s0.8-1.8,1.8-1.8s1.8,0.8,1.8,1.8
				C102.8,96.8,102,97.6,101.1,97.6z"/>
			<path class="st5" d="M136.7,92.3c-2,0.3-3.6,1.9-3.9,3.9c-0.5,3.3,2.3,6.1,5.6,5.6c2-0.3,3.6-1.9,3.9-3.9
				C142.8,94.6,140,91.8,136.7,92.3z M136.7,98.1c-1,0-1.8-0.8-1.8-1.8s0.8-1.8,1.8-1.8s1.8,0.8,1.8,1.8S137.7,98.1,136.7,98.1z"/>
		</g>
	</g>
</g>
</svg>
