<?xml version="1.0" encoding="utf-8"?>
<!-- Generator: Adobe Illustrator 18.0.0, SVG Export Plug-In . SVG Version: 6.00 Build 0)  -->
<!DOCTYPE svg PUBLIC "-//W3C//DTD SVG 1.1//EN" "http://www.w3.org/Graphics/SVG/1.1/DTD/svg11.dtd">
<svg version="1.1" id="Camada_1" xmlns="http://www.w3.org/2000/svg" xmlns:xlink="http://www.w3.org/1999/xlink" x="0px" y="0px"
	 viewBox="0 640 612 152" enable-background="new 0 640 612 152" xml:space="preserve">
<g id="Logo_maior">
	<g id="Corujinha_completa">
		<path fill="#EFB381" d="M140,717.1c-0.3-4.5-1.1-9.1-1.9-13.3c0-0.1,0-0.1,0-0.1c-1.2-6.1-2.7-11.1-3.2-12.9v-0.1
			c-0.6-2.1-1.1-3.9-1.5-5.1l0,0c-0.9-2.7-1.8-5-2.5-6.5c-0.1-0.3-0.2-0.5-0.3-0.7c-0.3-0.7-0.5-1.5-0.6-2.3c0-0.1,0.1-0.1,0.1-0.1
			c-0.1-0.3-0.1-0.7-0.1-1c0-0.8,0.1-1.7,0.3-2.8c0.6-3.6,2-6,2.9-9c0.7-2.4,1.2-5.1,1.6-7.7c0.7-4,0.9-7.2,0.7-8.8
			c0-0.5-0.2-0.9-0.4-1.1c-0.4-0.3-1-0.3-1.4,0l-0.1,0.1c-0.1,0.1-0.1,0.2-0.2,0.2c-0.2,0.2-0.4,0.5-0.6,0.7c-0.3,0.3-0.6,0.7-1,1.1
			c-0.3,0.4-0.7,0.8-1.1,1.2c-0.2,0.3-0.5,0.6-0.8,0.9c-0.1,0.1-0.2,0.2-0.3,0.4c-0.1,0.1-0.2,0.2-0.3,0.4l0,0l0,0
			c-0.1,0.2-0.3,0.3-0.4,0.5c-0.4,0.5-0.9,0.9-1.2,1.3c-0.2,0.2-0.4,0.4-0.6,0.6c-0.3,0.3-0.5,0.5-0.8,0.8c-0.4,0.3-0.7,0.7-1.1,1.1
			c-0.6,0.6-1.2,1.1-1.8,1.7c-0.3,0.3-0.6,0.6-1,0.9c-0.6,0.5-1.2,1-1.8,1.5c-0.9,0.7-1.8,1.4-2.7,2.1c-0.2,0.1-0.3,0.2-0.5,0.3
			c-0.9,0.7-1.8,1.3-2.7,1.9c-0.6,0.4-1.2,0.8-1.9,1.1c-0.3,0.2-0.6,0.3-0.9,0.5s-0.5,0.3-0.8,0.4c-0.5,0.3-1,0.5-1.4,0.7
			s-1,0.5-1.4,0.7c-0.3,0.1-0.5,0.2-0.8,0.3s-0.5,0.2-0.8,0.3c-0.2,0.1-0.5,0.2-0.7,0.3s-0.5,0.2-0.7,0.3s-0.5,0.2-0.7,0.3
			c-1,0.4-2,0.7-2.9,1c-0.5,0.2-0.9,0.3-1.4,0.5l-0.7,0.2c-0.5,0.1-0.9,0.3-1.3,0.4c-0.4,0.1-0.9,0.2-1.2,0.3
			c-0.2,0.1-0.4,0.1-0.6,0.2c-0.2,0.1-0.4,0.1-0.6,0.1c-0.2,0.1-0.4,0.1-0.6,0.1c-0.1,0.1-0.3,0.1-0.4,0.1c-0.4,0.1-0.8,0.2-1.2,0.2
			c-0.2,0.1-0.3,0.1-0.5,0.1c-0.2,0.1-0.3,0.1-0.5,0.1c-0.7,0.1-1.3,0.2-1.9,0.3c-0.3,0.1-0.6,0.1-0.9,0.1s-0.6,0-0.9-0.1
			c-0.5-0.1-1.1-0.2-1.9-0.3c-0.2,0-0.3-0.1-0.5-0.1s-0.3-0.1-0.5-0.1c-0.4-0.1-0.7-0.2-1.2-0.2c-0.1-0.1-0.3-0.1-0.4-0.1
			c-0.2-0.1-0.4-0.1-0.6-0.1c-0.2-0.1-0.4-0.1-0.6-0.1c-0.2-0.1-0.4-0.1-0.6-0.2c-0.4-0.1-0.8-0.2-1.2-0.3c-1.2-0.3-2.6-0.7-4.1-1.2
			c-0.5-0.2-1-0.3-1.4-0.5c-0.2-0.1-0.5-0.2-0.7-0.3s-0.5-0.2-0.7-0.3s-0.5-0.2-0.7-0.3s-0.5-0.2-0.8-0.3c-0.5-0.2-1-0.5-1.5-0.7
			s-1-0.5-1.4-0.7c-0.5-0.2-1-0.5-1.4-0.7c-0.3-0.1-0.5-0.3-0.8-0.4c-0.3-0.2-0.6-0.3-0.9-0.5c-0.6-0.3-1.2-0.7-1.9-1.1
			c-0.9-0.6-1.8-1.2-2.7-1.9c-0.2-0.1-0.3-0.2-0.5-0.3c-0.9-0.7-1.8-1.4-2.7-2.1c-0.6-0.5-1.2-1-1.8-1.5c-0.3-0.3-0.6-0.6-1-0.9
			c-0.6-0.6-1.2-1.1-1.8-1.7c-0.4-0.3-0.7-0.7-1.1-1.1c-0.3-0.3-0.6-0.6-0.8-0.8c-0.8-0.8-1.6-1.6-2.3-2.3c0,0,0-0.1-0.1-0.1
			c-0.2-0.2-0.5-0.5-0.7-0.7c-1.1-1.1-2-2.2-2.8-3.1c-0.2-0.2-0.4-0.5-0.6-0.7c-0.1-0.1-0.1-0.2-0.2-0.2c0-0.1-0.1-0.1-0.1-0.1
			c-0.4-0.3-1-0.3-1.4,0c-0.2,0.2-0.4,0.6-0.4,1c-0.2,2,0.1,6.6,1.3,11.8c0.3,1.6,0.7,3.1,1.1,4.6c0.9,3,2.3,5.4,2.9,9
			c0.5,3.1,0.4,4.4-0.3,6.2c-0.1,0.2-0.2,0.5-0.3,0.7c-0.7,1.5-1.6,3.8-2.5,6.5l0,0c-0.4,1.2-0.9,2.9-1.5,5.1v0.1
			c-0.6,1.9-2,6.9-3.2,12.9c0,0.1,0,0.1,0,0.1c-0.9,4.2-1.6,8.9-1.9,13.3c-0.1,1.1-0.1,2.3-0.1,3.4l0,0c0,0.7,0,1.5,0,2.2
			c0,1.8,0.1,3.5,0.2,5.1c0.3,3.7,0.9,7,1.5,9.9c1.2,5.5,2.6,9.3,3,10.2c8.2,20.9,24.3,31.3,28.8,34.1c5.4,3.3,10.5,5.3,14.6,6.6
			c0.2,0.1,0.5,0.1,0.6,0.2c1,0.3,2,0.3,3,0c0.2-0.1,0.4-0.1,0.6-0.2c4.1-1.3,9.1-3.3,14.6-6.6c4.5-2.7,20.6-13.2,28.8-34.1
			c0.3-0.9,1.8-4.7,3-10.2c0.6-2.8,1.2-6.2,1.5-9.9c0.1-1.6,0.2-3.3,0.2-5.1c0-0.7,0-1.5,0-2.2l0,0
			C140.2,719.3,140.1,718.2,140,717.1z"/>
		<path id="asa_esquerda_1_" fill="#C84630" d="M39.5,712.2c0.5-0.3,1-0.4,1.5-0.2c1.4,0.6,3.3,1.5,5.5,3
			c15.5,10.2,19.8,31.1,24.1,54.4c0.6,3.3,1.3,7.2,1.9,11.6c0.2,1.2-1.2,2.2-2.3,1.5c-6.4-4-18.3-13-25.6-29.2
			C36.1,734.1,33.9,716.3,39.5,712.2z"/>
		<path id="asa_direita_1_" fill="#C84630" d="M140.4,712.2c-0.5-0.3-1-0.4-1.5-0.2c-1.4,0.6-3.3,1.5-5.5,3
			c-15.5,10.3-19.8,31.2-24.2,54.5c-0.6,3.3-1.3,7.2-1.9,11.6c-0.2,1.2,1.2,2.2,2.3,1.5c6.4-4,18.3-13,25.6-29.2
			C143.9,734.1,146.1,716.3,140.4,712.2z"/>
		<path fill="#FCD0A1" d="M135,645.5c-1.9,7-5.3,16.2-11,21.6c-0.1,0.1-0.1,0.1-0.1,0.1c-0.2,0.2-0.3,0.3-0.5,0.5
			c-0.9,0.8-1.9,1.5-2.9,2.2c-0.9,0.6-1.9,1.2-2.8,1.8l0,0c-0.3,0.2-0.6,0.3-0.9,0.5c-1,0.6-2,1.1-3,1.6c-2,1.1-4.1,2-6.1,3
			c-2.6,1.2-5.1,2.5-7.3,4c-2.7,1.7-5.1,3.6-6.9,6.1c-0.6,0.9-1.1,1.7-1.6,2.7c-0.7,1.4-0.7,1.6-0.7,1.6c-0.3,0.9-0.5,1.5-1,1.8
			c-0.6,0.2,0.1,0.2-0.5,0c-0.5-0.2-0.7-0.7-1-1.7c-0.1-0.2-0.2-0.6-0.6-1.4c-0.5-1-1-1.9-1.7-2.8c-1.8-2.4-4.2-4.4-6.9-6.1
			c-2.3-1.4-4.8-2.7-7.3-4c-2-1-4-2-6.1-3c-1-0.5-2-1.1-3-1.6c-0.3-0.2-0.6-0.3-0.9-0.5l0,0c-1-0.6-1.9-1.2-2.8-1.8
			c-1-0.7-1.9-1.4-2.9-2.2c-0.2-0.2-0.3-0.3-0.5-0.5c-0.1-0.1-0.1-0.1-0.1-0.1c-5.7-5.4-9.1-14.5-11-21.6c0.4-0.3,1-0.3,1.4,0
			l0.1,0.1c0.1,0.1,0.1,0.2,0.2,0.2c0.2,0.2,0.4,0.5,0.6,0.7c0.8,0.9,1.7,1.9,2.8,3.1c0.2,0.2,0.5,0.5,0.7,0.7c0,0,0.1,0,0.1,0.1
			c0.7,0.7,1.5,1.5,2.3,2.3c0.3,0.3,0.5,0.5,0.8,0.8c0.4,0.3,0.7,0.7,1.1,1.1c0.6,0.6,1.2,1.1,1.8,1.6c0.3,0.3,0.6,0.6,1,0.9
			c0.6,0.5,1.2,1,1.8,1.5c0.9,0.7,1.8,1.4,2.7,2.1c0.2,0.1,0.3,0.2,0.5,0.3c0.9,0.7,1.8,1.2,2.7,1.9c0.6,0.4,1.2,0.8,1.9,1.1
			c0.3,0.2,0.6,0.3,0.9,0.5s0.5,0.3,0.8,0.4c0.5,0.3,1,0.5,1.4,0.7c0.5,0.2,1,0.5,1.4,0.7c0.5,0.2,1,0.5,1.5,0.7
			c0.3,0.1,0.5,0.2,0.8,0.3c0.2,0.1,0.5,0.2,0.7,0.3c0.2,0.1,0.5,0.2,0.7,0.3c0.2,0.1,0.5,0.2,0.7,0.3c0.5,0.2,1,0.3,1.4,0.5
			c1.4,0.5,2.8,0.9,4.1,1.2c0.4,0.1,0.9,0.2,1.2,0.3c0.2,0.1,0.4,0.1,0.6,0.2c0.2,0.1,0.4,0.1,0.6,0.1c0.2,0.1,0.4,0.1,0.6,0.1
			c0.1,0.1,0.3,0.1,0.4,0.1c0.4,0.1,0.8,0.2,1.2,0.2c0.2,0.1,0.3,0.1,0.5,0.1c0.2,0.1,0.3,0.1,0.5,0.1c1.8,0.3,3.6,0.3,5.4,0
			c0.2,0,0.3-0.1,0.5-0.1s0.3-0.1,0.5-0.1c0.4-0.1,0.7-0.2,1.2-0.2c0.1-0.1,0.3-0.1,0.4-0.1c0.2-0.1,0.4-0.1,0.6-0.1
			c0.2-0.1,0.4-0.1,0.6-0.1c0.2-0.1,0.4-0.1,0.6-0.2c0.4-0.1,0.8-0.2,1.2-0.3c0.5-0.1,0.9-0.2,1.3-0.3l0.7-0.2
			c0.5-0.1,0.9-0.3,1.4-0.5c0.9-0.3,1.9-0.6,2.9-1c0.2-0.1,0.5-0.2,0.7-0.3s0.5-0.2,0.7-0.3s0.5-0.2,0.7-0.3
			c0.3-0.1,0.5-0.2,0.8-0.3s0.5-0.2,0.8-0.3c0.5-0.2,1-0.5,1.4-0.7c0.5-0.2,1-0.5,1.4-0.7c0.3-0.1,0.5-0.3,0.8-0.4
			c0.3-0.2,0.6-0.3,0.9-0.5c0.6-0.3,1.2-0.7,1.9-1.1c0.9-0.6,1.8-1.2,2.7-1.9c0.2-0.1,0.3-0.2,0.5-0.3c0.9-0.7,1.8-1.4,2.7-2.1
			c0.6-0.5,1.2-1,1.8-1.5c0.3-0.3,0.6-0.6,1-0.9c0.6-0.6,1.2-1.1,1.8-1.6c0.4-0.3,0.7-0.7,1.1-1.1c0.3-0.3,0.6-0.5,0.8-0.8
			c0.2-0.2,0.4-0.4,0.6-0.6c0.5-0.5,0.9-0.9,1.2-1.3c0.1-0.2,0.3-0.3,0.4-0.4l0,0l0,0c0.1-0.1,0.2-0.2,0.3-0.4
			c0.1-0.1,0.2-0.2,0.3-0.3c0.3-0.3,0.5-0.6,0.8-0.9c0.4-0.4,0.7-0.8,1.1-1.2c0.3-0.4,0.7-0.7,1-1.1c0.2-0.2,0.4-0.5,0.6-0.7
			c0.1-0.1,0.1-0.2,0.2-0.2c0-0.1,0.1-0.1,0.1-0.1C134,645.2,134.6,645.2,135,645.5z"/>
		<path id="rosto_3_" fill="#FFFFFF" d="M130.7,696.1c-0.5,7.3-4.8,12.3-6.5,14c-1.8,1.9-4.1,4.7-9.8,8.9l0,0c-1.4,1-3,2.1-4.7,3.3
			c-3.2,2.1-7.2,4.5-12.1,7.2c-4.8,2.6-10.7,2.6-15.5,0c-4.9-2.6-8.9-5.1-12.1-7.2c-1.8-1.2-3.3-2.3-4.7-3.3l0,0
			c-5.7-4.2-7.9-7-9.8-8.9c-1.6-1.7-6.1-6.6-6.5-14c-0.1-0.9-0.1-1.7,0-2.5c0.4-5.3,2.9-9.4,4.8-12.4c2.8-4.5,6-7.4,8.2-9.1h0.1l0,0
			c0.3,0.1,0.6,0.2,0.9,0.2c4.3,1.2,8.9,2.7,13.8,4.8c2.2,0.9,4.2,1.8,6.2,2.7c4.4,2,9.4,2,13.7,0c1.9-0.9,4-1.8,6.2-2.7
			c4.9-2,9.6-3.6,13.8-4.8c0.3-0.1,0.6-0.2,0.9-0.2l0,0h0.1c2.2,1.7,5.4,4.7,8.2,9.1c1.9,3.1,4.4,7.2,4.8,12.4
			C130.8,694.5,130.8,695.3,130.7,696.1z"/>
		<path id="bico_2_" fill="#FF6F59" d="M94.6,705.2c0,0-0.2,1.9-3.4,6.4c-0.8,1.1-2.4,1.1-3.2,0c-3.2-4.4-3.4-6.4-3.4-6.4
			c-0.1-0.9-0.2-2.1,0.6-3.2c1.3-1.8,4.1-1.6,4.4-1.6s3.1-0.2,4.4,1.6C94.8,703.1,94.8,704.4,94.6,705.2z"/>
		<g id="Olhos_3_">
			<path fill="#45403C" d="M76,694c-0.3-2-1.9-3.6-3.9-3.9c-3.3-0.6-6.1,2.3-5.6,5.6c0.3,2,1.9,3.6,3.9,3.9
				C73.8,700.1,76.5,697.2,76,694z M72.1,695.8c-1,0-1.8-0.8-1.8-1.8s0.8-1.8,1.8-1.8s1.8,0.8,1.8,1.8C73.8,695,73,695.8,72.1,695.8
				z"/>
			<path fill="#45403C" d="M107.7,690.5c-2,0.3-3.6,1.9-3.9,3.9c-0.5,3.3,2.3,6.1,5.6,5.6c2-0.3,3.6-1.9,3.9-3.9
				C113.8,692.8,111,690,107.7,690.5z M107.7,696.3c-1,0-1.8-0.8-1.8-1.8s0.8-1.8,1.8-1.8s1.8,0.8,1.8,1.8
				C109.5,695.5,108.7,696.3,107.7,696.3z"/>
		</g>
	</g>
	<g id="GRACE_2_">
		<path fill="#C84630" d="M237.2,745.3c-1.4,3-3.4,5.6-5.8,7.8c-2.5,2.2-5.4,4-8.7,5.3s-6.9,1.9-10.7,1.9h-13.7
			c-3.8,0-7.4-0.6-10.7-1.9s-6.2-3.1-8.7-5.3c-2.5-2.2-4.4-4.8-5.8-7.8c-1.4-3-2.2-6.2-2.2-9.6v-37.2c0-3.4,0.7-6.6,2.2-9.6
			c1.4-3,3.4-5.6,5.8-7.8c2.5-2.2,5.4-4,8.7-5.3s6.9-1.9,10.7-1.9H212c3.8,0,7.4,0.6,10.7,1.9s6.2,3.1,8.7,5.3s4.4,4.8,5.8,7.8
			c1.4,3,2.2,6.2,2.2,9.6c0,0.9-0.3,1.6-1,2.2c-0.7,0.6-1.5,0.9-2.5,0.9h-6.8c-1,0-1.8-0.3-2.5-0.9c-0.7-0.6-1-1.4-1-2.2
			c0-1.7-0.4-3.3-1.1-4.8c-0.7-1.5-1.7-2.8-3-3.9c-1.2-1.1-2.7-2-4.3-2.7s-3.4-1-5.3-1h-13.7c-1.9,0-3.7,0.3-5.3,1s-3.1,1.6-4.3,2.7
			c-1.2,1.1-2.2,2.4-3,3.9c-0.7,1.5-1.1,3.1-1.1,4.8v37.2c0,1.7,0.4,3.3,1.1,4.8c0.7,1.5,1.7,2.8,3,3.9c1.3,1.1,2.7,2,4.3,2.7
			s3.4,1,5.3,1h13.7c1.9,0,3.7-0.3,5.3-1s3.1-1.5,4.3-2.7c1.2-1.1,2.2-2.4,3-3.9s1.1-3.1,1.1-4.8v-12.4h-24c-1,0-1.8-0.3-2.5-1
			c-0.7-0.6-1-1.4-1-2.2v-6.2c0-0.8,0.3-1.5,1-2.1c0.7-0.6,1.5-0.9,2.5-0.9h34.2c1,0,1.8,0.3,2.5,0.9c0.7,0.6,1,1.3,1,2.1v21.7
			C239.4,739.1,238.6,742.3,237.2,745.3z"/>
		<path fill="#C84630" d="M321.8,698.5c0,3.4-0.7,6.6-2.2,9.6s-3.4,5.7-5.8,7.9c-2.5,2.3-5.4,4-8.7,5.3c-3.3,1.3-6.9,1.9-10.7,1.9
			h-4.3l30.6,27.5c0.7,0.7,1,1.4,1,2.2c0,0.8-0.3,1.5-1,2.1l-4.8,4.4c-0.7,0.6-1.4,0.9-2.3,0.9s-1.8-0.3-2.5-0.9l-40.2-36.2h-4v34
			c0,0.9-0.3,1.6-1.1,2.2c-0.7,0.6-1.5,0.9-2.4,0.9h-6.9c-0.9,0-1.7-0.3-2.3-0.9c-0.7-0.6-1-1.4-1-2.2v-80.5c0-0.9,0.3-1.6,1-2.2
			c0.7-0.6,1.4-0.9,2.3-0.9h37.9c3.8,0,7.4,0.6,10.7,1.9c3.3,1.3,6.2,3.1,8.7,5.3s4.4,4.8,5.8,7.8
			C321.1,691.8,321.8,695,321.8,698.5z M308.1,698.5c0-1.7-0.4-3.3-1.1-4.8s-1.7-2.8-3-3.9c-1.2-1.1-2.7-2-4.3-2.7
			c-1.6-0.7-3.4-1-5.3-1h-27.5V711h27.5c1.9,0,3.7-0.3,5.3-1s3.1-1.6,4.3-2.7c1.2-1.1,2.2-2.4,3-4
			C307.8,701.8,308.1,700.2,308.1,698.5z"/>
		<path fill="#C84630" d="M404.3,757.3c0,0.9-0.3,1.6-1,2.2c-0.7,0.6-1.5,0.9-2.5,0.9H394c-1,0-1.8-0.3-2.5-0.9
			c-0.7-0.6-1-1.4-1-2.2v-34h-41.1v34c0,0.9-0.3,1.6-1.1,2.2c-0.7,0.6-1.5,0.9-2.4,0.9H339c-0.9,0-1.7-0.3-2.3-0.9
			c-0.7-0.6-1-1.4-1-2.2v-58.9c0-3.4,0.7-6.6,2.2-9.6c1.4-3,3.4-5.6,5.8-7.8c2.5-2.2,5.4-4,8.7-5.3s6.9-1.9,10.7-1.9h13.7
			c3.8,0,7.4,0.6,10.7,1.9c3.3,1.3,6.2,3.1,8.7,5.3s4.4,4.8,5.8,7.8s2.2,6.2,2.2,9.6L404.3,757.3L404.3,757.3z M390.6,698.5
			c0-1.7-0.4-3.3-1.1-4.8s-1.8-2.8-3-3.9c-1.2-1.1-2.7-2-4.3-2.7c-1.6-0.7-3.4-1-5.3-1h-13.7c-1.9,0-3.7,0.3-5.3,1
			c-1.6,0.7-3.1,1.6-4.3,2.7c-1.2,1.1-2.2,2.4-3,3.9c-0.7,1.5-1.1,3.1-1.1,4.8V711h41.1L390.6,698.5L390.6,698.5z"/>
		<path fill="#C84630" d="M486.8,735.7c0,3.4-0.7,6.6-2.2,9.6s-3.4,5.6-5.8,7.8c-2.5,2.2-5.4,4-8.7,5.3c-3.3,1.3-6.9,1.9-10.7,1.9
			h-13.7c-3.8,0-7.4-0.6-10.7-1.9c-3.3-1.3-6.2-3.1-8.7-5.3c-2.5-2.2-4.4-4.8-5.8-7.8s-2.2-6.2-2.2-9.6v-37.2c0-3.4,0.7-6.6,2.2-9.6
			s3.4-5.6,5.8-7.8c2.5-2.2,5.4-4,8.7-5.3c3.3-1.3,6.9-1.9,10.7-1.9h13.7c3.8,0,7.4,0.6,10.7,1.9c3.3,1.3,6.2,3.1,8.7,5.3
			s4.4,4.8,5.8,7.8s2.2,6.2,2.2,9.6c0,0.9-0.3,1.6-1,2.2c-0.7,0.6-1.5,0.9-2.5,0.9h-6.8c-1,0-1.8-0.3-2.5-0.9c-0.7-0.6-1-1.4-1-2.2
			c0-1.7-0.4-3.3-1.1-4.8s-1.8-2.8-3-3.9c-1.2-1.1-2.7-2-4.3-2.7c-1.6-0.7-3.4-1-5.3-1h-13.7c-1.9,0-3.7,0.3-5.3,1s-3.1,1.6-4.3,2.7
			c-1.2,1.1-2.2,2.4-3,3.9s-1.1,3.1-1.1,4.8v37.2c0,1.7,0.4,3.3,1.1,4.8s1.8,2.8,3,3.9c1.2,1.1,2.7,2,4.3,2.7c1.6,0.7,3.4,1,5.3,1
			h13.7c1.9,0,3.7-0.3,5.3-1c1.6-0.7,3.1-1.5,4.3-2.7c1.2-1.1,2.2-2.4,3-3.9s1.1-3.1,1.1-4.8c0-0.9,0.3-1.6,1-2.2
			c0.7-0.6,1.5-0.9,2.5-0.9h6.8c1,0,1.8,0.3,2.5,0.9C486.4,734.1,486.8,734.8,486.8,735.7z"/>
		<path fill="#C84630" d="M568.2,759.5c-0.7,0.6-1.5,0.9-2.5,0.9h-61.8c-0.9,0-1.7-0.3-2.3-0.9c-0.7-0.6-1-1.4-1-2.2v-80.5
			c0-0.9,0.3-1.6,1-2.2c0.7-0.6,1.4-0.9,2.3-0.9h61.8c1,0,1.8,0.3,2.5,0.9c0.7,0.6,1,1.4,1,2.2v6.2c0,0.8-0.3,1.5-1,2.1
			c-0.7,0.6-1.5,0.9-2.5,0.9h-51.4v24.9H552c1,0,1.8,0.3,2.5,0.9c0.7,0.6,1,1.3,1,2.1v6.2c0,0.8-0.3,1.5-1,2.2c-0.7,0.6-1.5,1-2.5,1
			h-37.7V748h51.4c1,0,1.8,0.3,2.5,0.9c0.7,0.6,1,1.4,1,2.2v6.1C569.2,758.2,568.9,759,568.2,759.5z"/>
	</g>
</g>
</svg>
