<svg xmlns="http://www.w3.org/2000/svg" viewBox="0 0 48.11 106.36"><defs><style>.cls-1{fill:#fff;}.cls-1,.cls-2,.cls-3{stroke:#fff;stroke-linejoin:round;stroke-width:0.75px;}.cls-2,.cls-3{fill:none;}.cls-2{stroke-linecap:round;}</style></defs><title>Asset 3lamp</title><g id="Layer_2" data-name="Layer 2"><g id="OBJECTS"><g id="lamp"><circle class="cls-1" cx="24.06" cy="94.63" r="6.6"/><line class="cls-2" x1="24.06" y1="103.53" x2="24.06" y2="105.99"/><line class="cls-2" x1="28.5" y1="102.34" x2="29.73" y2="104.47"/><line class="cls-2" x1="31.76" y1="99.08" x2="33.89" y2="100.31"/><line class="cls-2" x1="32.95" y1="94.63" x2="35.41" y2="94.63"/><line class="cls-2" x1="31.76" y1="90.18" x2="33.89" y2="88.95"/><line class="cls-2" x1="28.5" y1="86.93" x2="29.73" y2="84.8"/><line class="cls-2" x1="24.06" y1="85.73" x2="24.06" y2="83.28"/><line class="cls-2" x1="19.61" y1="86.93" x2="18.38" y2="84.8"/><line class="cls-2" x1="16.35" y1="90.18" x2="14.22" y2="88.95"/><line class="cls-2" x1="15.16" y1="94.63" x2="12.7" y2="94.63"/><line class="cls-2" x1="16.35" y1="99.08" x2="14.22" y2="100.31"/><line class="cls-2" x1="19.61" y1="102.34" x2="18.38" y2="104.47"/><line class="cls-3" x1="24.06" x2="24.06" y2="79.31"/><path class="cls-1" d="M3.68,96.15c-3.85,0-4.42-1.81-1.27-4L18.33,81a10.73,10.73,0,0,1,11.46,0L45.7,92.13c3.15,2.21,2.58,4-1.27,4Z"/></g></g></g></svg>