<svg id="OBJECTS" xmlns="http://www.w3.org/2000/svg" viewBox="0 0 369.69 215.52"><defs><style>.cls-1{fill:#002c4c;}.cls-1,.cls-3,.cls-4{stroke:#002c4c;}.cls-1,.cls-12,.cls-16,.cls-17,.cls-18,.cls-19,.cls-3,.cls-4,.cls-6,.cls-7,.cls-8,.cls-9{stroke-linecap:round;stroke-linejoin:round;}.cls-1,.cls-12,.cls-16,.cls-17,.cls-3,.cls-4,.cls-6,.cls-7,.cls-8,.cls-9{stroke-width:0.75px;}.cls-1,.cls-17,.cls-4{opacity:0.8;}.cls-2{fill:#00192d;opacity:0.6;}.cls-12,.cls-16,.cls-17,.cls-18,.cls-19,.cls-3,.cls-7{fill:none;}.cls-4{fill:#275668;}.cls-5{fill:#efefef;}.cls-15,.cls-6{fill:#9ee493;}.cls-12,.cls-6,.cls-8{stroke:#007dea;}.cls-17,.cls-18,.cls-7,.cls-9{stroke:#fff;}.cls-10,.cls-8,.cls-9{fill:#fff;}.cls-11{fill:#dbedff;}.cls-13{fill:#f865af;}.cls-14{fill:#007dea;}.cls-16{stroke:#ea698c;}.cls-18,.cls-19{stroke-width:0.5px;}.cls-19{stroke:#9ee493;}.cls-20{fill:#0074f2;}</style></defs><title>landing</title><path class="cls-1" d="M302.26,351.41c-21.9-8.19-31.09-15.56-31.09-20.38V296.11H228.83V331c0,4.82-9.19,12.19-31.09,20.38a6.18,6.18,0,0,0-.55,3H302.81A6.18,6.18,0,0,0,302.26,351.41Z" transform="translate(-74.22 -149.61)"/><path class="cls-2" d="M273.67,335.93c-1.69-1.83-2.5-3.47-2.5-4.9V296.11H228.83v30.22Z" transform="translate(-74.22 -149.61)"/><path class="cls-3" d="M302.26,351.41c-21.9-8.19-31.09-15.56-31.09-20.38,0-5.33.75-34.92.75-34.92H229.57s-.74,29.59-.74,34.92c0,4.82-9.19,12.19-31.09,20.38a6.18,6.18,0,0,0-.55,3H302.81A6.18,6.18,0,0,0,302.26,351.41Z" transform="translate(-74.22 -149.61)"/><rect class="cls-4" x="75.71" y="39.43" width="200.14" height="133.55" rx="3.54" ry="3.54"/><path class="cls-1" d="M346.53,189H153.47a3.54,3.54,0,0,0-3.54,3.54V302.87H350.07V192.58A3.54,3.54,0,0,0,346.53,189Z" transform="translate(-74.22 -149.61)"/><rect class="cls-5" x="81.68" y="48.04" width="188.2" height="98.98"/><path class="cls-6" d="M397,234.5a6.09,6.09,0,0,1,5.58-6.57l2.87-.24a6.1,6.1,0,0,1,6.57,5.58L413.27,249c.28,3.36-2.84-.29-6.2,0l-2.87.23c-3.36.28-5.68,4.37-5.95,1Z" transform="translate(-74.22 -149.61)"/><path class="cls-7" d="M398.25,247.94l7.32-.6,7.33,91.07a4.7,4.7,0,0,0-4-1.65,4.63,4.63,0,0,0-3.37,2.25Z" transform="translate(-74.22 -149.61)"/><path class="cls-7" d="M405,247.39l7.94-.66,7.31,91.08a4.36,4.36,0,0,0-3.12-1.94,4.31,4.31,0,0,0-4.19,2.54Q408.93,292.9,405,247.39Z" transform="translate(-74.22 -149.61)"/><path class="cls-8" d="M397.56,245.83a.46.46,0,0,1,.42-.49l14.76-1.22a.46.46,0,0,1,.49.42l.48,5.82a.46.46,0,0,1-.42.49l-14.76,1.22a.47.47,0,0,1-.49-.42Z" transform="translate(-74.22 -149.61)"/><path class="cls-7" d="M405.57,339l5.08,13.68a9.87,9.87,0,0,1,6.69,0l2.88-14.86" transform="translate(-74.22 -149.61)"/><path class="cls-9" d="M410.65,352.69,415,364.54l2.3-11.87A9.87,9.87,0,0,0,410.65,352.69Z" transform="translate(-74.22 -149.61)"/><path class="cls-8" d="M358.33,234l-.07-.05c-2.89-.17-4.87-2.38-7.56.56-.38,1.39-2.21,6.58-2.59,9.63a120.87,120.87,0,0,1-2.95,15.47c-.6,2.33-2.15,6.73-2.22,7.05a28,28,0,0,0,.27,3.24,4.76,4.76,0,0,0,.56,1.33c.17.32.69,1.13.85,1.46s.39.61.64.34a1.81,1.81,0,0,0,0-2,3.65,3.65,0,0,1-.66-1.69,4.44,4.44,0,0,1,0-1.31,22.87,22.87,0,0,0,.54,2.37,5.22,5.22,0,0,0,.78,1.4c.23.35.9,1.17,1.12,1.53s.5.62.75.29a2,2,0,0,0-.3-2.23,3.33,3.33,0,0,1-.91-1.78c-.21-.86-.4-2-.43-2.28a25.43,25.43,0,0,0,.75,2.45,4.74,4.74,0,0,0,.8,1.21c.23.3.88,1,1.1,1.3s.48.52.69.21a1.8,1.8,0,0,0-.41-2,3.88,3.88,0,0,1-.95-1.55,9.91,9.91,0,0,1-.47-2c.31.57.74,1.37.9,1.7a2.63,2.63,0,0,0,.83.94c.24.23,1,.63,1.25.87s.5.38.64.08a1.53,1.53,0,0,0-.71-1.55,3.14,3.14,0,0,1-1-1.21,5.79,5.79,0,0,1-.6-1.47c.26-2,1.21-3.92,1.07-6.05a9.92,9.92,0,0,0-.17-1.77c1.82-4.84,4.95-11.78,6.18-14.71C357.58,240,358.76,235.12,358.33,234Z" transform="translate(-74.22 -149.61)"/><path class="cls-8" d="M354.42,248.21a27.15,27.15,0,0,1-6.68-1.32,1.11,1.11,0,0,1-.53-1c.09-.62.58-2.66.58-2.66a1.51,1.51,0,0,1-.59-1.73c.24-1.32,1.09-2.82,1.15-3.48s-.42-1-.13-1.64,2.13-3.15,2.16-3.77-.22-1.21,0-1.7a43.21,43.21,0,0,0,2.49-6.77c.66-2.8,4.11-16.26,5.61-19.22,2.53-5,4.18-6.29,4.18-6.29l3.46,3.56Z" transform="translate(-74.22 -149.61)"/><polygon class="cls-8" points="271.45 192.5 265.23 206.13 257.58 203.1 262.25 188.86 271.45 192.5"/><g id="_Group_" data-name="&lt;Group&gt;"><polygon class="cls-10" points="264.66 212.72 263.52 215.14 238.11 205.09 239.25 202.66 247.26 205.84 264.66 212.72"/><path class="cls-11" d="M330.32,349.06c2-.54,2.58-1.42,3.3-1.07a1.65,1.65,0,0,1,0,2.74,3.65,3.65,0,0,0-1.61-.25c-1.46,0-7.35.18-8.66.26s-1.4,1-1.4,1a4.51,4.51,0,0,0-.44-1.45s.24-.69,1.41-.68A37.93,37.93,0,0,0,330.32,349.06Z" transform="translate(-74.22 -149.61)"/><path class="cls-10" d="M323.38,350.74c1.31-.08,7.2-.26,8.66-.26a3.65,3.65,0,0,1,1.61.25,3.11,3.11,0,0,1,1.23,1,8,8,0,0,0,3.27,2.46c1.33.49,2,.23,2.2,1.29a11.91,11.91,0,0,1-1.47,6.84l-17.4-6.88a7.53,7.53,0,0,0,.5-3.71S322.07,350.83,323.38,350.74Z" transform="translate(-74.22 -149.61)"/><path class="cls-10" d="M321.54,350.29a4.51,4.51,0,0,1,.44,1.45,7.53,7.53,0,0,1-.5,3.71l-8-3.17s1.4-3.49,8-2.12Z" transform="translate(-74.22 -149.61)"/><polygon class="cls-12" points="264.66 212.72 247.26 205.84 239.25 202.66 238.11 205.09 263.52 215.14 264.66 212.72"/><path class="cls-12" d="M313.47,352.28s1.4-3.49,8-2.12l.07.13a4.51,4.51,0,0,1,.44,1.45,7.53,7.53,0,0,1-.5,3.71" transform="translate(-74.22 -149.61)"/><path class="cls-12" d="M322,351.74s.09-.91,1.4-1,7.2-.26,8.66-.26a3.65,3.65,0,0,1,1.61.25,3.11,3.11,0,0,1,1.23,1,8,8,0,0,0,3.27,2.46c1.33.49,2,.23,2.2,1.29a11.91,11.91,0,0,1-1.47,6.84" transform="translate(-74.22 -149.61)"/><path class="cls-12" d="M321.54,350.29s.24-.69,1.41-.68a37.93,37.93,0,0,0,7.37-.55c2-.54,2.58-1.42,3.3-1.07a1.65,1.65,0,0,1,0,2.74" transform="translate(-74.22 -149.61)"/></g><path class="cls-8" d="M325,351.86a.55.55,0,0,1-.4.66h0a.55.55,0,0,1-.66-.4l-.67-2.72a.54.54,0,0,1,.4-.66h0a.54.54,0,0,1,.66.39Z" transform="translate(-74.22 -149.61)"/><path class="cls-8" d="M327.31,351.92a.55.55,0,0,1-.4.66h0a.54.54,0,0,1-.66-.4l-.75-2.95a.54.54,0,0,1,.4-.66h0a.54.54,0,0,1,.66.4Z" transform="translate(-74.22 -149.61)"/><path class="cls-8" d="M329.63,352a.56.56,0,0,1-.4.67h0a.55.55,0,0,1-.66-.4l-.83-3.19a.55.55,0,0,1,.4-.66h0a.55.55,0,0,1,.66.4Z" transform="translate(-74.22 -149.61)"/><path class="cls-8" d="M332,352.05a.54.54,0,0,1-.4.66h0a.55.55,0,0,1-.66-.4l-.91-3.42a.55.55,0,0,1,.4-.66h0a.54.54,0,0,1,.66.4Z" transform="translate(-74.22 -149.61)"/><path class="cls-8" d="M352.24,254.17s-6.75,35.4-8.34,44.34-4.82,30.68-8.28,40.9l10.13,4s9.48-19.51,10.86-25.21,2.42-14.1,3.37-17,8.11-21.08,9.25-23.89,4.95-7.06,4.67-16l-21.15-8.38Z" transform="translate(-74.22 -149.61)"/><polygon class="cls-8" points="312.74 191.17 311.97 206.13 303.74 206.13 302.85 191.17 312.74 191.17"/><g id="_Group_2" data-name="&lt;Group&gt;"><polygon class="cls-10" points="313.87 212.47 313.7 215.14 286.37 215.14 286.54 212.47 295.16 212.47 313.87 212.47"/><path class="cls-11" d="M375.25,352.89c1.66-1.24,1.87-2.27,2.67-2.21a1.65,1.65,0,0,1,1,2.54,3.68,3.68,0,0,0-1.59.36c-1.36.54-6.78,2.87-8,3.43s-.93,1.45-.93,1.45a5,5,0,0,0-.94-1.2s0-.72,1.06-1.14A37.79,37.79,0,0,0,375.25,352.89Z" transform="translate(-74.22 -149.61)"/><path class="cls-10" d="M369.41,357c1.18-.56,6.6-2.89,8-3.43a3.68,3.68,0,0,1,1.59-.36,3,3,0,0,1,1.51.49,8.12,8.12,0,0,0,3.95,1.08c1.41,0,1.91-.51,2.52.39a12,12,0,0,1,1.15,6.9H369.38a7.62,7.62,0,0,0-.9-3.63S368.23,357.57,369.41,357Z" transform="translate(-74.22 -149.61)"/><path class="cls-10" d="M367.54,357.26a5,5,0,0,1,.94,1.2,7.62,7.62,0,0,1,.9,3.63h-8.62s0-3.75,6.67-4.91Z" transform="translate(-74.22 -149.61)"/><polygon class="cls-12" points="313.87 212.47 295.16 212.47 286.54 212.47 286.37 215.14 313.7 215.14 313.87 212.47"/><path class="cls-12" d="M360.76,362.08s0-3.75,6.67-4.91l.11.09a5,5,0,0,1,.94,1.2,7.62,7.62,0,0,1,.9,3.63" transform="translate(-74.22 -149.61)"/><path class="cls-12" d="M368.48,358.46s-.25-.89.93-1.45,6.6-2.89,8-3.43a3.68,3.68,0,0,1,1.59-.36,3,3,0,0,1,1.51.49,8.12,8.12,0,0,0,3.95,1.08c1.41,0,1.91-.51,2.52.39a12,12,0,0,1,1.15,6.9" transform="translate(-74.22 -149.61)"/><path class="cls-12" d="M367.54,357.26s0-.72,1.06-1.14a37.79,37.79,0,0,0,6.65-3.23c1.66-1.24,1.87-2.27,2.67-2.21a1.65,1.65,0,0,1,1,2.54" transform="translate(-74.22 -149.61)"/></g><path class="cls-8" d="M371.32,357.46a.54.54,0,0,1-.13.76h0a.54.54,0,0,1-.76-.13l-1.63-2.29a.56.56,0,0,1,.13-.76h0a.54.54,0,0,1,.76.13Z" transform="translate(-74.22 -149.61)"/><path class="cls-8" d="M373.5,356.66a.54.54,0,0,1-.13.76h0a.54.54,0,0,1-.76-.13l-1.78-2.47a.54.54,0,0,1,.12-.76h0a.56.56,0,0,1,.77.13Z" transform="translate(-74.22 -149.61)"/><path class="cls-8" d="M375.68,355.87a.54.54,0,0,1-.13.76h0a.55.55,0,0,1-.76-.13l-1.94-2.66a.54.54,0,0,1,.13-.76h0a.55.55,0,0,1,.76.13Z" transform="translate(-74.22 -149.61)"/><path class="cls-8" d="M377.86,355.07a.54.54,0,0,1-.13.76h0a.54.54,0,0,1-.76-.13l-2.1-2.84a.55.55,0,0,1,.13-.76h0a.54.54,0,0,1,.76.13Z" transform="translate(-74.22 -149.61)"/><path class="cls-8" d="M360.72,256.6s6.75,35.4,8.56,44.29,6.8,30.3,7.34,41.08h10.9s1.63-21.62.82-27.44-2.94-14-3.12-17.06S385,274.9,385,271.86s2-8.39-1.56-16.64H360.72Z" transform="translate(-74.22 -149.61)"/><path class="cls-13" d="M397.62,174.28c-.32,4-3.42,7.17-6.94,7.17s-6.12-3.21-5.8-7.17,3.42-7.16,6.94-7.16S397.93,170.33,397.62,174.28Z" transform="translate(-74.22 -149.61)"/><path class="cls-13" d="M389.34,178.08c-2.24,11.2-9.19,9.7-8.44,15.7h-6.51V172.7S386.78,170.54,389.34,178.08Z" transform="translate(-74.22 -149.61)"/><path class="cls-13" d="M360.63,175.29c-.7,11.54-2.06,18.37,3.83,20.25a28.05,28.05,0,0,1,.73-10.32c1.46-6.14,2.53-9.72,2.53-9.72Z" transform="translate(-74.22 -149.61)"/><path class="cls-10" d="M382.07,195.9a14.51,14.51,0,0,0,5.53,3.72c3.3,1.66,6.14,3.08,5.1,10.71s-6.12,13.91-9,21.18-2.88,9.24-1.85,13,2.54,9.63,2.75,10.07-.74,1.6-.74,1.6-16.7,6.37-32.21,0a4.49,4.49,0,0,1-.4-2.76c.34-1.36,3.53-12.43,4.15-19.42s.63-9.26.21-11.69-1.35-6.78-.51-9.21,3.13-5.94,4.13-7.82,2.17-5.78,3.38-6.63,3.78-1.52,4.84-2.22Z" transform="translate(-74.22 -149.61)"/><path class="cls-14" d="M355.3,220.4c.08.42.15.81.21,1.19,5.16,1.73,14.06,3.76,27.54,3.76,1.16,0,2.37,0,3.6,0l.54-1C371.08,224.73,360.78,222.3,355.3,220.4Z" transform="translate(-74.22 -149.61)"/><path class="cls-14" d="M355.92,225.57c0,.34,0,.71,0,1.1,5.3,1.62,13.81,3.33,26.18,3.33l2.27,0c.15-.35.31-.68.46-1C370.93,229.21,361.51,227.3,355.92,225.57Z" transform="translate(-74.22 -149.61)"/><path class="cls-14" d="M355.71,230.45c0,.34,0,.69-.08,1.07,5.34,1.56,13.65,3.14,25.51,3.14l1.42,0c.11-.33.23-.66.36-1C370.13,233.77,361.24,232.07,355.71,230.45Z" transform="translate(-74.22 -149.61)"/><path class="cls-14" d="M355.29,235.25c-.05.34-.09.7-.15,1.06,5.36,1.51,13.54,3,25.05,3l1.15,0c0-.32.1-.66.17-1C369.36,238.38,360.78,236.81,355.29,235.25Z" transform="translate(-74.22 -149.61)"/><path class="cls-14" d="M392.71,210.23c-17.3.8-28.34-1.68-34.21-3.66l-.54.93c5.09,1.76,14.1,3.9,27.94,3.9,2.09,0,4.32-.05,6.64-.16,0-.31.11-.61.16-.91A.31.31,0,0,1,392.71,210.23Z" transform="translate(-74.22 -149.61)"/><path class="cls-14" d="M354.79,215.22c0,.36,0,.74,0,1.12,4.8,1.83,14.15,4.36,29.2,4.36,1.63,0,3.35,0,5.12-.1.17-.34.34-.68.5-1C371.07,220.29,359.92,217.21,354.79,215.22Z" transform="translate(-74.22 -149.61)"/><path class="cls-14" d="M356.16,210.73c-.16.32-.31.63-.45.94,4.77,1.83,14.13,4.38,29.23,4.38,2,0,4.1-.05,6.29-.15l.36-1C372.92,215.73,361.56,212.75,356.16,210.73Z" transform="translate(-74.22 -149.61)"/><path class="cls-12" d="M382.07,195.9a14.51,14.51,0,0,0,5.53,3.72c3.3,1.66,6.14,3.08,5.1,10.71s-6.12,13.91-9,21.18-2.88,9.24-1.85,13,2.54,9.63,2.75,10.07-.74,1.6-.74,1.6-16.7,6.37-32.21,0a4.49,4.49,0,0,1-.4-2.76c.34-1.36,3.53-12.43,4.15-19.42s.63-9.26.21-11.69-1.35-6.78-.51-9.21,3.13-5.94,4.13-7.82,2.17-5.78,3.38-6.63,3.78-1.52,4.84-2.22Z" transform="translate(-74.22 -149.61)"/><path class="cls-10" d="M380.8,184.44a58.58,58.58,0,0,0-.31,7.57,9,9,0,0,0,2.52,5s-3.72,6.1-12.26,4.51c-3.71-.69-4.07-4-3.53-4.82s3.84-3.28,3.84-12.26Z" transform="translate(-74.22 -149.61)"/><path class="cls-11" d="M380.45,190.38c0-2.69.35-5.94.35-5.94h-9.74c0,9-3.3,11.49-3.84,12.26a2.74,2.74,0,0,0,.11,2.3C373.57,198,378.4,192.93,380.45,190.38Z" transform="translate(-74.22 -149.61)"/><path class="cls-12" d="M380.8,184.44a58.58,58.58,0,0,0-.31,7.57,9,9,0,0,0,2.52,5s-3.72,6.1-12.26,4.51c-3.71-.69-4.07-4-3.53-4.82s3.84-3.28,3.84-12.26Z" transform="translate(-74.22 -149.61)"/><path class="cls-13" d="M365.13,162.58c-6.88,4-13.55,14.42-1.29,16.2h3.81v-16.2Z" transform="translate(-74.22 -149.61)"/><path class="cls-8" d="M367.43,165.08c-4.56,3-5.53,7.27-5.53,11.81a53.09,53.09,0,0,1-.2,7c-.23,2.33,2,8.25,4.82,8.72,3.26.54,10.55-1,13.75-6.07,3.61-1.17,6.53-4.07,6.82-11.59C387.44,165.89,376.25,159.29,367.43,165.08Z" transform="translate(-74.22 -149.61)"/><path class="cls-13" d="M364.66,162.9c-1.53,1.15.43,9,7.53,13.55a27.82,27.82,0,0,0,12.1,4.5s4.33.18,5-2.87A14,14,0,0,0,382,162.4C375.43,158.84,367.45,160.81,364.66,162.9Z" transform="translate(-74.22 -149.61)"/><path class="cls-15" d="M371.25,178a1.14,1.14,0,0,0-.26.06,1.1,1.1,0,0,0-.42.39,1.56,1.56,0,0,0-.2.43,1.15,1.15,0,0,0-.06.28c0,.11,0,.23-.05.35a8.84,8.84,0,0,0-.09,2l0,.15.05.11.05.06a2.44,2.44,0,0,0,.28.3,5.08,5.08,0,0,0,.77.56,7.31,7.31,0,0,0,1.94.79,6.92,6.92,0,0,0,2.24.18,8.76,8.76,0,0,0,1.16-.13l.56-.14c.18-.06.35-.14.53-.21a2.08,2.08,0,0,0,.76-.71,2.71,2.71,0,0,0,.2-.51c.06-.19.12-.38.16-.55s.1-.8.12-1a1,1,0,0,0,0-.24c0-.07,0-.15,0-.26a1.79,1.79,0,0,0-.23-.87s-.08-.06-.12-.11-.12-.05-.13-.07c-.18-.05-.36-.11-.52-.14-.33-.08-.65-.16-1-.22q-1-.19-1.89-.3c-.59-.09-1.13-.12-1.61-.18l-1.24-.06h-1Zm-.1-.68,1.13-.06a25.11,25.11,0,0,1,3,.15c.6.07,1.26.16,1.95.29.33.06.7.14,1.08.23.19,0,.35.11.53.16l.36.19a2.47,2.47,0,0,1,.28.28,2.27,2.27,0,0,1,.36,1.31,3.13,3.13,0,0,1,0,.67,9.37,9.37,0,0,1-.2,1.08,6.14,6.14,0,0,1-.23.57,4,4,0,0,1-.3.58,2.68,2.68,0,0,1-1,.83,7.21,7.21,0,0,1-2.43.46,8.08,8.08,0,0,1-2.36-.16,7.94,7.94,0,0,1-2.08-.79,6.14,6.14,0,0,1-.88-.59,2.32,2.32,0,0,1-.37-.39l-.1-.13-.05-.1c0-.13,0-.19-.08-.28a9.19,9.19,0,0,1,0-2.18l0-.35c0-.12,0-.26.07-.37a2.07,2.07,0,0,1,.27-.62,1.61,1.61,0,0,1,.77-.69c.22-.07.29-.07.3-.08Z" transform="translate(-74.22 -149.61)"/><path class="cls-15" d="M362.24,176.86l-.05,0s-.12,0-.1.05h0L362,177a1.25,1.25,0,0,0-.15.24,3.36,3.36,0,0,0-.26.81c-.06.36-.13.77-.18,1.2a3.6,3.6,0,0,0,0,.66v.16s0,.09,0,.06l0,.09a1.09,1.09,0,0,0,0,.17l.07.13a3,3,0,0,0,1,1.07,2.4,2.4,0,0,0,1.51.41,3.13,3.13,0,0,0,.83-.13,1.9,1.9,0,0,0,.7-.38,2.73,2.73,0,0,0,.72-1.45c.08-.27.14-.54.19-.8s0-.25.05-.38,0-.28,0-.42a2.36,2.36,0,0,0,0-.67s0-.09,0-.1,0-.06,0-.06v0h0l0,0h0l0,0-.18-.09a8.05,8.05,0,0,0-1.26-.39,9.93,9.93,0,0,0-1.16-.21,7.79,7.79,0,0,0-.89-.06c-.25,0-.44,0-.56,0l-.21,0Zm-.22-.65h0l.22,0a6.39,6.39,0,0,1,.64-.06,6.78,6.78,0,0,1,1,0,9.3,9.3,0,0,1,1.26.18,7.39,7.39,0,0,1,1.49.45l.17.08.05,0h0l.05,0h0l.13.12a.79.79,0,0,1,.19.26.86.86,0,0,1,.1.28,2.84,2.84,0,0,1,0,1c0,.14,0,.29,0,.42a3.56,3.56,0,0,1-.1.47,5.29,5.29,0,0,1-.31.87,3.72,3.72,0,0,1-1.06,1.57,3.22,3.22,0,0,1-1.81.55,3,3,0,0,1-1.77-.44,3.74,3.74,0,0,1-1.21-1.23,1.54,1.54,0,0,1-.17-.38l0-.09a.37.37,0,0,1,0-.14V180a4.52,4.52,0,0,1,0-.74c0-.46.09-.86.14-1.22a3.22,3.22,0,0,1,.27-1,2,2,0,0,1,.19-.36l.11-.14a1,1,0,0,1,.17-.14.55.55,0,0,1,.18-.1l.05,0Z" transform="translate(-74.22 -149.61)"/><path class="cls-15" d="M379,178.2s.93.3,1.13.38a.63.63,0,0,1,.3.6,5.85,5.85,0,0,1-.1.73c0,.07-.23.22-.35.29a.72.72,0,0,0-.24.24Z" transform="translate(-74.22 -149.61)"/><polygon class="cls-15" points="305.94 28.96 309.09 30.22 308.48 31.12 305.94 30.33 305.94 28.96"/><path class="cls-15" d="M361.69,176.4s-.57.18-.68.24a.42.42,0,0,0-.21.29c0,.12,0,.36,0,.46s.39.31.39.31Z" transform="translate(-74.22 -149.61)"/><path class="cls-15" d="M367.23,178a4.83,4.83,0,0,1,2.84.57l-.3,1.08s-1.68-1-2.78-.49Z" transform="translate(-74.22 -149.61)"/><path class="cls-10" d="M381.38,181.2s1.42-2.56,3.69-2.42,1.43,3.73,0,5.53a6.17,6.17,0,0,1-4.8,2.25A15,15,0,0,1,381.38,181.2Z" transform="translate(-74.22 -149.61)"/><path class="cls-12" d="M381.38,181.2s1.42-2.56,3.69-2.42,1.43,3.73,0,5.53a6.17,6.17,0,0,1-4.8,2.25" transform="translate(-74.22 -149.61)"/><path class="cls-14" d="M376.06,180.62a1,1,0,1,1-2-.16,1,1,0,1,1,2,.16Z" transform="translate(-74.22 -149.61)"/><path class="cls-14" d="M365.64,179.39c-.05.61-.45,1.07-.9,1s-.76-.56-.71-1.17.45-1.08.89-1S365.69,178.78,365.64,179.39Z" transform="translate(-74.22 -149.61)"/><path class="cls-12" d="M366.73,184.62s-.64-.43-.2-1.51" transform="translate(-74.22 -149.61)"/><path class="cls-16" d="M366.27,187.67a5.39,5.39,0,0,0,4.08-.22" transform="translate(-74.22 -149.61)"/><path class="cls-12" d="M371.49,176.68s1.09-.46,3.51.29" transform="translate(-74.22 -149.61)"/><path class="cls-12" d="M365.91,176a3.15,3.15,0,0,0-1.45-.48" transform="translate(-74.22 -149.61)"/><g id="_Group_3" data-name="&lt;Group&gt;"><path class="cls-10" d="M387.55,244.58a2.13,2.13,0,0,1-.71,2.15c-.25.07-.42-.62-.59-1.28a3,3,0,0,0-.15-.46,1.28,1.28,0,0,1-.51,1.37c-.27.09-.5-.62-.71-1.28a18.93,18.93,0,0,1-1-3.42,25.55,25.55,0,0,1,.33-4.19c.25-.69,2.78-5.49,3.21-6.52a4,4,0,0,1,1.81-2.22c.89-.45,8.44-3.62,8.44-3.62l2.85,5.09s-6.95,1.67-7.33,1.92-.37,1.06-.6,2.13a10.64,10.64,0,0,1-1.94,3.9,25.66,25.66,0,0,0,.13,3c0,.54.52.85.88,1.81s-.14,1.54-.38,1.31-1.88-1.73-2-2.37l-.21-1.08c.11.67-.06,1.59.11,2.16a5.44,5.44,0,0,1,.35,2.09c-.06.82-.76.71-.95.33a13.65,13.65,0,0,1-1.15-2.53c0-.18-.09-.47-.15-.83C387.35,242.54,387.4,243.27,387.55,244.58Z" transform="translate(-74.22 -149.61)"/><path class="cls-12" d="M389.06,240.83l.21,1.08c.13.64,1.77,2.14,2,2.37s.74-.35.38-1.31-.86-1.27-.88-1.81a25.66,25.66,0,0,1-.13-3,10.64,10.64,0,0,0,1.94-3.9c.23-1.07.23-1.88.6-2.13s7.33-1.92,7.33-1.92l-2.85-5.09s-7.55,3.17-8.44,3.62a4,4,0,0,0-1.81,2.22c-.43,1-3,5.83-3.21,6.52a25.55,25.55,0,0,0-.33,4.19,18.93,18.93,0,0,0,1,3.42c.21.66.44,1.37.71,1.28a1.28,1.28,0,0,0,.51-1.37" transform="translate(-74.22 -149.61)"/><path class="cls-12" d="M388.61,238.49s.24,1.27.44,2.29" transform="translate(-74.22 -149.61)"/><path class="cls-12" d="M386.84,238.84s.24,2,.43,3.21c.06.36.11.65.15.83a13.65,13.65,0,0,0,1.15,2.53c.19.38.89.49.95-.33a5.44,5.44,0,0,0-.35-2.09c-.17-.57,0-1.49-.11-2.16,0,0,0,0,0-.05" transform="translate(-74.22 -149.61)"/><path class="cls-12" d="M385.34,238.84s0,3.13,0,3.86a10.75,10.75,0,0,0,.76,2.29,3,3,0,0,1,.15.46c.17.66.34,1.35.59,1.28a2.13,2.13,0,0,0,.71-2.15c-.15-1.31-.2-2-.28-2.53" transform="translate(-74.22 -149.61)"/></g><g id="_Group_4" data-name="&lt;Group&gt;"><path class="cls-10" d="M415,221.53c-.19-.18-.62-.55-1.24-1.07-2.66-2.26-8.67-7.22-12.36-10.37-4.54-3.88-10.37-8.31-10.37-8.31-1.87-.92-5.42,3.79-5.71,9.25s1.2,9.38,3.75,9.73,12.18,2,12.18,2L396.57,225l3.45,6s10.79-.79,13.68-3.51S416,222.47,415,221.53Z" transform="translate(-74.22 -149.61)"/><path class="cls-12" d="M401.21,222.73s-9.63-1.61-12.18-2-4-4.27-3.75-9.73,3.84-10.17,5.71-9.25c0,0,5.83,4.43,10.37,8.31,3.69,3.15,9.7,8.11,12.36,10.37.62.52,1,.89,1.24,1.07,1,.94,1.64,3.18-1.26,5.91S400,231,400,231l-3.45-6,4.64-2.24,1.77-.87c1-.5,3.3-1.75,8.63-.91" transform="translate(-74.22 -149.61)"/></g><path class="cls-7" d="M117.36,334.62c-4.32-3-1.71-7.89-3.71-11.14s-.72-6.6,1.33-8.74,2.56-3.91,1.11-6.94.18-6.76,1.54-8.45,4.64-4,6-11.24,11-10.5,11-10.5,6.26,8.14,3.37,14.87-1.48,10.48-1.29,12.65-.52,6.17-3.41,7.89-3.45,3.47-2.93,6.39-.27,6.41-3.74,8S122.61,334.54,117.36,334.62Zm0,0,17.28-57M120.37,324.7l-3.52-6.84m4.15,4.89,7.15-2.83m2.2-28,5.86-2.32m-1.38,14.91-9.46,3.73m-.47,1.48-4.43-8.61m9.11-6.85L126.87,289" transform="translate(-74.22 -149.61)"/><path class="cls-7" d="M108.08,325.13c-3.19-1.5-3.88-4.72-3.38-7.41s0-4.3-2.65-5.91-3.26-5.3-3.07-7.3,1.54-5.45-1.07-11.67,3.22-13.66,3.22-13.66,8.93,3.12,10.09,9.76,4.16,8.83,5.39,10.41,2.72,5,1.36,7.8-.92,4.41,1,6.4,3,5.08,1.15,8.06.49,7.53-3.52,10.24C111.73,331.73,111.27,326.62,108.08,325.13Zm8.48,6.72-15.43-52.67m16.05,37.23-3.3,6.27m-.57-1.8-6.56-2.66M105,292.43l-5.39-2.18m9.83,17.26L100.73,304m9.1,4.89L114,301m-8.34-6.38,2.55-4.83" transform="translate(-74.22 -149.61)"/><path class="cls-17" d="M112.07,332.71c1.45-2.32-.82-4.13-.54-6.11a3.66,3.66,0,0,0-2.46-3.9,2.76,2.76,0,0,1-2-3.1c.06-1.76-1.49-3.19-2.5-3.73a10.23,10.23,0,0,1-5.19-4.14c-2.14-3.17-7.48-2.73-7.48-2.73s-1.3,5.21,1.49,7.82a10.33,10.33,0,0,1,3.25,5.8,4.56,4.56,0,0,0,3.27,3.07,2.75,2.75,0,0,1,2.74,2.45,3.66,3.66,0,0,0,3.46,3.05C108.12,331.23,109.54,333.77,112.07,332.71Z" transform="translate(-74.22 -149.61)"/><line class="cls-7" x1="37.85" y1="183.1" x2="17.7" y2="159.39"/><line class="cls-7" x1="34.34" y1="178.97" x2="34.6" y2="174.97"/><line class="cls-7" x1="33.63" y1="178.17" x2="29.62" y2="178.31"/><line class="cls-7" x1="22.74" y1="165.37" x2="19.45" y2="165.48"/><line class="cls-7" x1="28.52" y1="172.15" x2="23.22" y2="172.33"/><line class="cls-7" x1="29.06" y1="172.76" x2="29.39" y2="167.71"/><line class="cls-7" x1="23.6" y1="166.33" x2="23.8" y2="163.24"/><path class="cls-17" d="M121.52,332.71c-1.45-2.32.83-4.13.54-6.11a3.66,3.66,0,0,1,2.46-3.9,2.76,2.76,0,0,0,2-3.1c-.06-1.76,1.49-3.19,2.5-3.73a10.23,10.23,0,0,0,5.19-4.14c2.14-3.17,7.48-2.73,7.48-2.73s1.3,5.21-1.48,7.82a10.3,10.3,0,0,0-3.26,5.8,4.56,4.56,0,0,1-3.27,3.07,2.75,2.75,0,0,0-2.74,2.45,3.66,3.66,0,0,1-3.45,3.05C125.47,331.23,124.05,333.77,121.52,332.71Z" transform="translate(-74.22 -149.61)"/><line class="cls-7" x1="47.3" y1="183.1" x2="67.45" y2="159.39"/><line class="cls-7" x1="50.81" y1="178.97" x2="50.54" y2="174.97"/><line class="cls-7" x1="51.52" y1="178.17" x2="55.53" y2="178.31"/><line class="cls-7" x1="62.4" y1="165.37" x2="65.69" y2="165.48"/><line class="cls-7" x1="56.62" y1="172.15" x2="61.93" y2="172.33"/><line class="cls-7" x1="56.09" y1="172.76" x2="55.76" y2="167.71"/><line class="cls-7" x1="61.55" y1="166.33" x2="61.34" y2="163.24"/><polygon class="cls-10" points="54.45 201.1 30.7 201.1 26.86 180.26 58.28 180.26 54.45 201.1"/><rect class="cls-7" x="26.54" y="194.65" width="2.98" height="15.78"/><rect class="cls-7" x="55.62" y="194.65" width="2.98" height="15.78"/><rect class="cls-7" x="29.52" y="201.1" width="26.1" height="2.75"/><rect class="cls-7" x="41.08" y="194.65" width="2.98" height="15.78"/><path class="cls-7" d="M100.53,344.2h3V360h-3ZM129.61,360h3V344.2h-3Zm0-9.33h-26.1v2.75h26.1ZM115.07,360h3V344.2h-3Z" transform="translate(-74.22 -149.61)"/><line class="cls-18" x1="0.25" y1="90.89" x2="2.25" y2="92.9"/><line class="cls-18" x1="2.25" y1="90.89" x2="0.25" y2="92.9"/><line class="cls-18" x1="227.59" y1="1.86" x2="229.59" y2="3.86"/><line class="cls-18" x1="229.59" y1="1.86" x2="227.59" y2="3.86"/><line class="cls-18" x1="345" y1="49.58" x2="347" y2="51.58"/><line class="cls-18" x1="347" y1="49.58" x2="345" y2="51.58"/><circle class="cls-18" cx="85.31" cy="25.67" r="1.44"/><polygon class="cls-18" points="349.69 3.86 353.08 4.4 350.92 7.07 349.69 3.86"/><path class="cls-18" d="M94.2,268.35c1.13,0,1.13.85,2.25.85s1.13-.85,2.26-.85,1.13.85,2.26.85,1.12-.85,2.25-.85,1.13.85,2.26.85,1.13-.85,2.26-.85" transform="translate(-74.22 -149.61)"/><path class="cls-18" d="M241,170.05c1.12,0,1.12.84,2.25.84s1.13-.84,2.25-.84,1.13.84,2.26.84,1.13-.84,2.26-.84,1.13.84,2.26.84,1.13-.84,2.26-.84" transform="translate(-74.22 -149.61)"/><circle class="cls-19" cx="44.74" cy="74.57" r="1.44"/><polygon class="cls-19" points="266.36 20.86 262.96 21.39 265.13 24.07 266.36 20.86"/><polygon class="cls-19" points="124.66 0.25 121.27 0.79 123.43 3.46 124.66 0.25"/><path class="cls-19" d="M126,158l-.53-.34c-1.26-.82-1.26-1.41-1.26-1.64a1,1,0,0,1,1-1,1,1,0,0,1,.81.44,1,1,0,0,1,1.79.53c0,.23,0,.82-1.25,1.64Z" transform="translate(-74.22 -149.61)"/><path class="cls-19" d="M430.12,259c1.13,0,1.13.84,2.25.84s1.13-.84,2.26-.84,1.13.84,2.26.84,1.12-.84,2.25-.84,1.13.84,2.26.84,1.13-.84,2.26-.84" transform="translate(-74.22 -149.61)"/><rect class="cls-20" x="111.84" y="94.92" width="10.74" height="11.49"/><path class="cls-13" d="M196.8,244.53V256H186.06v11.39a.47.47,0,0,0,.43.43h22.45a.47.47,0,0,0,.43-.43V245a.47.47,0,0,0-.43-.43Z" transform="translate(-74.22 -149.61)"/><path class="cls-13" d="M196.8,244.53V233.15a.45.45,0,0,0-.43-.43H173.92a.46.46,0,0,0-.43.43v22.44a.43.43,0,0,0,.43.43h12.14V244.53Z" transform="translate(-74.22 -149.61)"/><path class="cls-20" d="M217.59,242.71V233a.45.45,0,0,1,.43-.43h23.73a.45.45,0,0,1,.43.43v6.6l-16.06,21.11h9v-3.11a.45.45,0,0,1,.43-.43h6.17a.45.45,0,0,1,.43.43v9.66a.45.45,0,0,1-.43.43H218a.45.45,0,0,1-.43-.43v-6.55l16-21.11h-9v3.07a.46.46,0,0,1-.43.43H218A.43.43,0,0,1,217.59,242.71Z" transform="translate(-74.22 -149.61)"/><path class="cls-20" d="M247.23,267.36V233a.45.45,0,0,1,.43-.43h20.25a.46.46,0,0,1,.43.43v6.17a.46.46,0,0,1-.43.43H254.27v7h10.09a.45.45,0,0,1,.43.43v6.18a.45.45,0,0,1-.43.42H254.27v7h13.64a.46.46,0,0,1,.43.43v6.18a.47.47,0,0,1-.43.43H247.66A.46.46,0,0,1,247.23,267.36Z" transform="translate(-74.22 -149.61)"/><path class="cls-20" d="M283.91,267.36V239.64h-10.1a.46.46,0,0,1-.43-.43V233a.46.46,0,0,1,.43-.43H301.1a.45.45,0,0,1,.42.43v6.17a.45.45,0,0,1-.42.43H291v27.72a.47.47,0,0,1-.43.43h-6.23A.46.46,0,0,1,283.91,267.36Z" transform="translate(-74.22 -149.61)"/><path class="cls-20" d="M301.26,267.25l8.59-34.32a.41.41,0,0,1,.43-.32h6.34a.42.42,0,0,1,.43.32l8.59,34.32a.46.46,0,0,1-.43.54h-6.12a.4.4,0,0,1-.43-.33L317,260.75h-7l-1.67,6.71a.4.4,0,0,1-.43.33h-6.12A.46.46,0,0,1,301.26,267.25Zm12.19-20.57-1.78,7h3.5Z" transform="translate(-74.22 -149.61)"/><path class="cls-7" d="M416.84,337.74" transform="translate(-74.22 -149.61)"/><path class="cls-7" d="M413.07,341" transform="translate(-74.22 -149.61)"/></svg>