<?xml version="1.0" encoding="utf-8"?>
<!-- Generator: Adobe Illustrator 22.0.0, SVG Export Plug-In . SVG Version: 6.00 Build 0)  -->
<svg version="1.1" id="Layer_1" xmlns="http://www.w3.org/2000/svg" xmlns:xlink="http://www.w3.org/1999/xlink" x="0px" y="0px"
	 viewBox="0 0 274 415.2" style="enable-background:new 0 0 274 415.2;" xml:space="preserve">
<g>
	<path d="M137,0c76,0,137,61,137,137c0,61-92,204-128,267c-4,7-14,7-18,0C92,341,0,198,0,137C0,61,61,0,137,0z M137,20
		C72,20,20,72,20,137c0,52,84,184,117,242c33-58,117-190,117-242C254,72,202,20,137,20z"/>
	<path d="M137,79c32,0,58,26,58,58s-26,58-58,58s-58-26-58-58S105,79,137,79z M137,99c-21,0-38,17-38,38s17,38,38,38s38-17,38-38
		S158,99,137,99z"/>
</g>
</svg>
