<?xml version="1.0" encoding="utf-8"?>
<!-- Generator: Adobe Illustrator 22.0.0, SVG Export Plug-In . SVG Version: 6.00 Build 0)  -->
<svg version="1.1" id="Layer_1" xmlns="http://www.w3.org/2000/svg" xmlns:xlink="http://www.w3.org/1999/xlink" x="0px" y="0px"
	 viewBox="0 0 1785.2 305.7" style="enable-background:new 0 0 1785.2 305.7;" xml:space="preserve">
<style type="text/css">
	.st0{fill:#FFFFFF;}
</style>
<path class="st0" d="M422.4,63.5c-32.4,0-58.9,26.5-58.9,58.9s26.5,58.9,58.9,58.9s58.9-26.5,58.9-58.9S454.8,63.5,422.4,63.5z
	 M425.6,181.6c-21.8-0.4-44.6,5.6-67.9,18.8c-3.7,2.1-5.9,6-6,10.2v59c0,6.5,5.3,11.8,11.8,11.8h117.8c6.5,0,11.8-5.3,11.8-11.8
	v-58.9c0-4.1-2.1-7.8-5.6-10C468.2,188.6,447.4,182,425.6,181.6z M223.4,150.6c0-30.5-24.8-55.4-55.4-55.4
	c-30.5,0-55.4,24.8-55.4,55.4S137.5,206,168,206S223.4,181.2,223.4,150.6z M129,150.6c0-21.5,17.5-39,39-39s39,17.5,39,39
	s-17.5,39-39,39S129,172.1,129,150.6z M195.5,240.4c-0.3,0-0.6,0-0.8,0l-5.3-21.5c-1.1-4.4-5.5-7.1-9.9-6s-7.1,5.5-6,9.9l5.4,22
	c-9.9,5.7-16.6,16.4-16.6,28.7c0,18.3,14.9,33.2,33.2,33.2s33.2-14.9,33.2-33.2C228.7,255.3,213.8,240.4,195.5,240.4z M195.5,290.4
	c-9.3,0-16.8-7.5-16.8-16.8c0-7.3,4.6-13.4,11.1-15.8c0.2,0,0.5-0.1,0.7-0.1c0.5-0.1,0.9-0.3,1.3-0.5c1.2-0.3,2.4-0.4,3.7-0.4
	c9.3,0,16.8,7.5,16.8,16.8S204.8,290.4,195.5,290.4z M293.6,130.9c-14.3,0-26.5,9.2-31.2,21.9l-22.3-2.2c-4.5-0.4-8.5,2.8-9,7.3
	s2.8,8.5,7.3,9l22.4,2.2c2.4,15.9,16.2,28.2,32.8,28.2c18.3,0,33.2-14.9,33.2-33.2S311.9,130.9,293.6,130.9z M293.6,180.9
	c-9.3,0-16.8-7.5-16.8-16.8s7.5-16.8,16.8-16.8s16.8,7.5,16.8,16.8S302.9,180.9,293.6,180.9z M203.2,98c1.3,0.8,2.8,1.2,4.2,1.2
	c2.8,0,5.5-1.4,7-4l18.3-30.6c2.4,0.5,4.9,0.9,7.4,0.9c18.3,0,33.2-14.9,33.2-33.2S258.5-0.9,240.2-0.9S207,14,207,32.3
	c0,9.9,4.4,18.7,11.2,24.8l-17.8,29.7C198.1,90.7,199.3,95.7,203.2,98z M240.2,15.5c9.3,0,16.8,7.5,16.8,16.8s-7.5,16.8-16.8,16.8
	s-16.8-7.5-16.8-16.8S230.9,15.5,240.2,15.5z M123.4,105.7c3-3.4,2.7-8.6-0.7-11.6l-8.8-7.8c3.3-5.2,5.3-11.3,5.3-17.9
	c0-18.3-14.9-33.2-33.2-33.2S52.8,50.1,52.8,68.4s14.9,33.2,33.2,33.2c5.8,0,11.2-1.5,15.9-4.1l9.9,8.8c1.6,1.4,3.5,2.1,5.4,2.1
	C119.5,108.5,121.8,107.5,123.4,105.7z M69.2,68.4c0-9.3,7.5-16.8,16.8-16.8s16.8,7.5,16.8,16.8S95.3,85.2,86,85.2
	S69.2,77.7,69.2,68.4z M100.6,169l-34.8,8.3C60.4,166.5,49.2,159,36.2,159C17.9,159,3,173.9,3,192.2s14.9,33.2,33.2,33.2
	c17.9,0,32.5-14.2,33.1-32l35.1-8.4c4.4-1.1,7.1-5.5,6.1-9.9C109.4,170.7,105,168,100.6,169z M36.2,209c-9.3,0-16.8-7.5-16.8-16.8
	s7.5-16.8,16.8-16.8S53,182.9,53,192.2C53,201.4,45.5,209,36.2,209z M239.3,158.3l7.4,0.8 M270.9,161.9l60.6,6.9 M343.6,170.2
	l7.4,0.8 M714.7,81.6c-1.4,14.9-3.9,27.5-7.6,37.6c-3.7,10.2-8.9,18.4-15.4,24.8c-6.6,6.3-14.7,10.9-24.4,13.6
	c-9.7,2.7-21.1,4.1-34.3,4.1h-19.3l-7.1,81.7h-46.5L580.8,5.9c6.6-0.4,13.4-1,20.7-1.7c6.1-0.5,12.9-0.8,20.3-1.2
	c7.5-0.3,14.7-0.5,21.7-0.5c13.1,0,24.2,1.4,33.4,4.2s16.6,7,22.2,12.5c5.6,5.5,9.8,12.4,12.4,20.5c2.6,8.1,3.9,17.4,3.9,27.8
	c0,2.3-0.1,4.5-0.2,6.8C715.1,76.7,714.9,79.1,714.7,81.6z M667.6,83.9c0.2-1.8,0.3-3.6,0.3-5.3c0-1.7,0-3.4,0-5.3
	c0-9.9-1.6-17.5-4.7-22.6c-3.2-5.1-8.9-7.6-17.3-7.6c-7.2,0-12.8,0.3-16.6,1c-2.3,0.5-4.1,0.8-5.4,1l-6.8,76.3h21.4
	c7.9,0,14.5-3.4,19.7-10.2C663.3,104.6,666.5,95.5,667.6,83.9z M731.3,243.3l14.6-169.6h36.6l2,21.4c4.7-7.5,10.2-13.4,16.4-17.8
	c6.2-4.4,13.3-6.6,21.2-6.6c3.6,0,6.6,0.1,8.8,0.3c2.3,0.2,4.3,0.6,6.1,1l-4.1,46.8c-5-1.4-9.8-2-14.6-2c-9.7,0-17.8,4.3-24.1,12.9
	c-6.3,8.6-10.1,19.8-11.2,33.6l-6.8,80L731.3,243.3L731.3,243.3z M995.9,139.9c0,2.5-0.1,5-0.2,7.5c-0.1,2.5-0.3,5.1-0.5,7.8
	c-1.6,17.9-4.2,32.6-8,44.3c-3.7,11.6-8.9,20.9-15.4,27.8c-6.6,6.9-14.6,11.7-24.1,14.4s-20.7,4.1-33.6,4.1c-10.6,0-20-1.1-28.1-3.2
	c-8.1-2.1-15-5.9-20.7-11.4c-5.7-5.4-9.9-12.7-12.7-21.9s-4.2-20.6-4.2-34.4c0-17.9,1.5-33.3,4.4-46.3s7.7-23.7,14.2-32.2
	c6.6-8.5,15-14.8,25.3-18.8c10.3-4.1,22.7-6.1,37.1-6.1c22.2,0,38.8,5.5,49.9,16.4C990.3,98.8,995.9,116.2,995.9,139.9z
	 M948.7,160.2c0.7-7.2,1-13.4,1-18.7c0-12.7-1.9-21.4-5.6-26.3c-3.7-4.9-9.8-7.3-18.1-7.3c-5,0-9.3,0.8-12.9,2.5
	c-3.6,1.7-6.6,4.6-9,8.6c-2.4,4.1-4.2,9.4-5.6,16.1c-1.4,6.7-2.5,15-3.4,24.9c-0.7,7.5-1,13.9-1,19.3c0,11.3,1.7,19,5.1,23.2
	c3.4,4.2,9.4,6.3,18,6.3c5.2,0,9.6-0.8,13.2-2.4c3.6-1.6,6.7-4.2,9.2-8c2.5-3.7,4.4-8.7,5.8-14.9
	C946.7,177.6,947.8,169.7,948.7,160.2z M1070.1,247.7c-1.1,11.3-3,20.6-5.6,27.8s-6.2,12.9-10.9,17c-4.6,4.1-10.4,6.9-17.3,8.5
	s-15.1,2.4-24.6,2.4c-5.2,0-10.1-0.2-14.8-0.5c-4.6-0.3-9.2-0.7-13.7-1.2l3.4-38c2.9,0.4,6.6,0.7,10.9,0.8c4.3,0.1,7.7,0.2,10.2,0.2
	c6.1,0,10.4-1.1,12.9-3.2c2.5-2.2,4-6.2,4.4-12l15.3-175.7h45.1L1070.1,247.7z M1041.3,44.9l3.4-39h48.5l-3.4,39H1041.3z
	 M1251.9,119.9c0,9.3-1.2,17.5-3.6,24.8c-2.4,7.2-6.2,13.3-11.4,18.3c-5.2,5-12.1,8.8-20.7,11.4c-8.6,2.6-19,3.9-31.2,3.9
	c-3.6,0-7.4-0.1-11.4-0.2c-4-0.1-8.1-0.4-12.4-0.8v2.7c0,10.6,1.9,17.9,5.6,21.9s10.5,5.9,20.2,5.9c7.7,0,15.6-0.6,23.7-1.7
	c8.1-1.1,14.8-2.3,20-3.4l-3.4,38c-2.7,0.7-6,1.4-9.8,2.2s-7.7,1.4-11.7,1.9s-7.9,0.8-11.7,1.2c-3.8,0.3-7.3,0.5-10.5,0.5
	c-10.2,0-19.4-0.8-27.6-2.5c-8.3-1.7-15.3-5-21.2-9.8c-5.9-4.9-10.5-11.8-13.7-20.7c-3.3-8.9-4.9-20.6-4.9-35.1
	c0-6.1,0.3-12.7,1-19.7c1.4-15.6,4-29,7.8-40.2s8.9-20.3,15.3-27.3c6.3-7,14-12.1,23.1-15.4c9-3.3,19.4-4.9,31.2-4.9
	c12,0,21.7,1.7,29.2,5.1s13.3,7.6,17.5,12.5c4.2,5,7,10.3,8.5,16.1C1251.1,110.2,1251.9,115.4,1251.9,119.9z M1190.5,108
	c-6.6,0-11.9,2.5-15.9,7.5c-4.1,5-7.3,13.8-9.8,26.5c5.9,0.7,11.2,1,15.9,1c8.1,0,14.6-1.3,19.5-3.9c4.9-2.6,7.3-7.2,7.3-13.7
	c0-4.7-1-8.8-2.9-12.2C1202.6,109.7,1198,108,1190.5,108z M1381.8,241.3c-5.7,1.6-12.1,2.8-19.3,3.7c-7.2,0.9-13.9,1.4-20,1.4
	c-9.3,0-17.7-0.8-25.3-2.5c-7.6-1.7-14.1-5-19.5-10s-9.6-11.9-12.5-20.9c-2.9-8.9-4.4-20.6-4.4-35.1c0-19.4,1.6-35.9,4.7-49.5
	c3.2-13.6,7.9-24.6,14.2-33.2c6.3-8.6,14.4-14.8,24.1-18.7c9.7-3.8,21.1-5.8,34.3-5.8c5.6,0,12.2,0.5,19.7,1.5s13.7,2.1,18.7,3.2
	l-3.4,39.7c-3.2-0.7-6-1.3-8.5-1.9s-5.1-1.1-7.8-1.5c-2.7-0.4-5.7-0.8-8.8-1c-3.2-0.2-6.9-0.3-11.2-0.3c-3.8,0-7.3,0.7-10.5,2
	c-3.2,1.4-5.9,3.9-8.3,7.6s-4.4,8.9-6.1,15.6c-1.7,6.7-3.1,15.4-4.2,26.3c-0.2,2.5-0.4,4.8-0.5,7s-0.2,4.2-0.2,6.3
	c0,12,1.7,20.2,5.3,24.8c3.5,4.5,8.6,6.8,15.4,6.8c8.6,0,15.8-0.6,21.5-1.7c5.8-1.1,11.1-2.1,16.1-3.1L1381.8,241.3z M1480.4,112.8
	l-6.1,72.9c-0.2,3.2-0.4,5.5-0.5,7s-0.2,2.4-0.2,2.9c0,8.1,4.3,12.2,12.9,12.2c3.6,0,7.5-0.3,11.5-1c4.1-0.7,7.3-1.4,9.8-2
	l-3.1,37.6c-1.1,0.2-3.1,0.6-5.9,1.2c-2.8,0.6-5.9,1-9.3,1.4c-3.4,0.3-6.9,0.7-10.5,1s-7,0.5-10.2,0.5c-8.1,0-14.8-0.9-20-2.7
	s-9.4-4.5-12.5-8c-3.2-3.5-5.4-7.8-6.6-12.9c-1.2-5.1-1.9-10.9-1.9-17.5c0-2.3,0.1-4.6,0.2-7.1s0.3-5,0.5-7.5l6.8-78h-22l3.4-39h22
	l3.7-40.7h45.1l-3.7,40.7h33.9l-3.4,39L1480.4,112.8L1480.4,112.8z M1535.4,243.3L1550,73.8h45.1l-14.6,169.6h-45.1V243.3z
	 M1551,44.9l3.4-39h48.5l-3.4,39H1551z M1774.4,139.9c0,2.5-0.1,5-0.2,7.5s-0.3,5.1-0.5,7.8c-1.6,17.9-4.2,32.6-8,44.3
	c-3.7,11.6-8.9,20.9-15.4,27.8c-6.6,6.9-14.6,11.7-24.1,14.4s-20.7,4.1-33.6,4.1c-10.6,0-20-1.1-28.1-3.2c-8.1-2.1-15-5.9-20.7-11.4
	c-5.7-5.4-9.9-12.7-12.7-21.9c-2.8-9.2-4.2-20.6-4.2-34.4c0-17.9,1.5-33.3,4.4-46.3s7.7-23.7,14.2-32.2c6.6-8.5,15-14.8,25.3-18.8
	c10.3-4.1,22.7-6.1,37.1-6.1c22.2,0,38.8,5.5,49.9,16.4C1768.9,98.8,1774.4,116.2,1774.4,139.9z M1727.3,160.2
	c0.7-7.2,1-13.4,1-18.7c0-12.7-1.9-21.4-5.6-26.3s-9.8-7.3-18.1-7.3c-5,0-9.3,0.8-12.9,2.5s-6.6,4.6-9,8.6
	c-2.4,4.1-4.2,9.4-5.6,16.1s-2.5,15-3.4,24.9c-0.7,7.5-1,13.9-1,19.3c0,11.3,1.7,19,5.1,23.2s9.4,6.3,18,6.3c5.2,0,9.6-0.8,13.2-2.4
	c3.6-1.6,6.7-4.2,9.2-8c2.5-3.7,4.4-8.7,5.8-14.9C1725.3,177.6,1726.4,169.7,1727.3,160.2z"/>
</svg>
