<?xml version="1.0" encoding="utf-8"?>
<!-- Generator: Adobe Illustrator 22.0.0, SVG Export Plug-In . SVG Version: 6.00 Build 0)  -->
<svg version="1.1" id="Layer_1" xmlns="http://www.w3.org/2000/svg" xmlns:xlink="http://www.w3.org/1999/xlink" x="0px" y="0px"
	 viewBox="0 0 289.9 74.1" style="enable-background:new 0 0 289.9 74.1;" xml:space="preserve">
<style type="text/css">
	.st0{opacity:0.3;fill:#FFFFFF;}
	.st1{fill:#FFFFFF;}
</style>
<g>
	<rect x="27" y="27.6" class="st0" width="20" height="21.4"/>
	<path class="st1" d="M47,27.6V49H27v21.2c0,0.4,0.4,0.8,0.8,0.8h41.8c0.4,0,0.8-0.4,0.8-0.8V28.4c0-0.4-0.4-0.8-0.8-0.8H47z"/>
	<path class="st1" d="M47,27.6V6.4c0-0.4-0.4-0.8-0.8-0.8H4.4C4,5.6,3.6,6,3.6,6.4v41.8C3.6,48.7,4,49,4.4,49H27V27.6H47z"/>
</g>
<g>
	<path class="st1" d="M85.7,24.2v-18c0-0.4,0.4-0.8,0.8-0.8h44.2c0.4,0,0.8,0.4,0.8,0.8v12.3l-29.9,39.3h16.8V52
		c0-0.4,0.4-0.8,0.8-0.8h11.5c0.4,0,0.8,0.4,0.8,0.8v18c0,0.4-0.4,0.8-0.8,0.8H86.5c-0.4,0-0.8-0.4-0.8-0.8V57.8l29.9-39.3H98.8v5.7
		c0,0.4-0.4,0.8-0.8,0.8H86.5C86.1,25,85.7,24.7,85.7,24.2z"/>
	<path class="st1" d="M140.9,70.1V6.2c0-0.4,0.4-0.8,0.8-0.8h37.7c0.4,0,0.8,0.4,0.8,0.8v11.5c0,0.4-0.4,0.8-0.8,0.8H154v13.1h18.8
		c0.4,0,0.8,0.4,0.8,0.8v11.5c0,0.4-0.4,0.8-0.8,0.8H154v13.1h25.4c0.4,0,0.8,0.4,0.8,0.8v11.5c0,0.4-0.4,0.8-0.8,0.8h-37.7
		C141.3,70.9,140.9,70.5,140.9,70.1z"/>
	<path class="st1" d="M209.2,70.1V18.5h-18.8c-0.4,0-0.8-0.4-0.8-0.8V6.2c0-0.4,0.4-0.8,0.8-0.8h50.8c0.4,0,0.8,0.4,0.8,0.8v11.5
		c0,0.4-0.4,0.8-0.8,0.8h-18.8v51.6c0,0.4-0.4,0.8-0.8,0.8H210C209.6,70.9,209.2,70.5,209.2,70.1z"/>
	<path class="st1" d="M241.5,69.9l16-63.9c0.1-0.4,0.4-0.6,0.8-0.6h11.8c0.4,0,0.7,0.2,0.8,0.6l16,63.9c0.1,0.5-0.3,1-0.8,1h-11.4
		c-0.4,0-0.7-0.2-0.8-0.6l-3.1-12.5h-13.1l-3.1,12.5c-0.1,0.4-0.4,0.6-0.8,0.6h-11.4C241.8,70.9,241.4,70.4,241.5,69.9z M264.2,31.6
		l-3.3,13.1h6.5L264.2,31.6z"/>
</g>
</svg>
