<?xml version="1.0" encoding="utf-8"?>
<!-- Generator: Adobe Illustrator 22.0.0, SVG Export Plug-In . SVG Version: 6.00 Build 0)  -->
<svg version="1.1" id="Layer_1" xmlns="http://www.w3.org/2000/svg" xmlns:xlink="http://www.w3.org/1999/xlink" x="0px" y="0px"
	 viewBox="0 0 32 30.5" style="enable-background:new 0 0 32 30.5;" xml:space="preserve">
<g>
	<path d="M16,29C8.3,29,2,22.7,2,15S8.3,1,16,1s14,6.3,14,14C30,22.7,23.7,29,16,29z M16,3C9.4,3,4,8.4,4,15s5.4,12,12,12
		s12-5.4,12-12C28,8.4,22.6,3,16,3z"/>
	<path d="M20.9,20.9c-0.3,0-0.5-0.1-0.7-0.3l-4.9-4.9C15.1,15.5,15,15.3,15,15V6c0-0.6,0.4-1,1-1c0.6,0,1,0.4,1,1v8.6l4.6,4.6
		c0.4,0.4,0.4,1,0,1.4C21.4,20.8,21.2,20.9,20.9,20.9z"/>
</g>
</svg>
