<svg xmlns="http://www.w3.org/2000/svg" viewBox="0 0 32 40" x="0px" y="0px"><title>clock time ui</title><g><path d="M16,30A14,14,0,1,1,30,16,14.0158,14.0158,0,0,1,16,30ZM16,4A12,12,0,1,0,28,16,12.0131,12.0131,0,0,0,16,4Z"/><path d="M20.917,21.917a.9967.9967,0,0,1-.707-.293l-4.917-4.917A.9993.9993,0,0,1,15,16V7a1,1,0,0,1,2,0v8.5859L21.624,20.21a1,1,0,0,1-.707,1.707Z"/></g><text x="0" y="47" fill="#000000" font-size="5px" font-weight="bold" font-family="'Helvetica Neue', Helvetica, Arial-Unicode, Arial, Sans-serif">Created by Ilham Juliandi</text><text x="0" y="52" fill="#000000" font-size="5px" font-weight="bold" font-family="'Helvetica Neue', Helvetica, Arial-Unicode, Arial, Sans-serif">from the Noun Project</text></svg>